<svg xmlns="http://www.w3.org/2000/svg" viewBox="0 0 281.02 126.31"><defs><style>.cls-1{fill:#000411;}.cls-1,.cls-2,.cls-3,.cls-4{fill-rule:evenodd;}.cls-2{fill:#fc5d3d;}.cls-3{fill:#72c2e9;}.cls-4{fill:#fff;}.cls-5{isolation:isolate;}</style></defs><g id="Layer_2" data-name="Layer 2"><g id="Layer_1-2" data-name="Layer 1"><path class="cls-1" d="M95.25,0a2.58,2.58,0,0,0-2.41,1.72L85.57,21.63,73,16.53a2.48,2.48,0,0,0-1-.18,2.54,2.54,0,0,0-1.77.76L16.78,71.63a2.68,2.68,0,0,0-.58,2.84l4.58,11.67L1.55,94.73A2.65,2.65,0,0,0,.2,98.15L1,100a46.81,46.81,0,0,0,24.83,25.31l1.83.78A2.56,2.56,0,0,0,31,124.74l8.42-19.61,11.45,4.66a2.57,2.57,0,0,0,2.79-.59l53.46-54.52a2.67,2.67,0,0,0,.58-2.83l-5.08-13,19.58-7.22a2.64,2.64,0,0,0,1.51-3.48l-.77-1.87A46.77,46.77,0,0,0,98.08,1L96.26.21a2.5,2.5,0,0,0-1-.21Z"/><path class="cls-2" d="M96.69,6.25a40.51,40.51,0,0,1,6.11,3.42l-2.23,9.12a2.73,2.73,0,0,0-.07.64,2.57,2.57,0,0,0,5.08.64l1.69-6.89a42,42,0,0,1,10.46,14.51L100.67,34l-2.48-6.32a2.58,2.58,0,0,0-1.43-1.47l-6.39-2.6Z"/><path class="cls-3" d="M73.19,22.26l20.63,8.39,8.23,21.05c-5-.81-12.21-5-18.27-11.24S74,27.2,73.19,22.26Z"/><path class="cls-4" d="M68.75,26.09c1.72,6,5.82,12.36,11.36,18.07C85.81,50,92.26,54.4,98.3,56.21l-6.17,6.28h0c-5-.59-12.53-4.87-18.8-11.34S63.14,37.3,62.59,32.35Z"/><path class="cls-2" d="M58.26,36.78c1.73,6,5.83,12.36,11.37,18.07,5.7,5.87,12.15,10.24,18.19,12.05l-6.17,6.28H81.6c-5-.59-12.53-4.87-18.8-11.34S52.65,48,52.1,43Z"/><path class="cls-3" d="M47.79,47.46c1.72,6,5.82,12.37,11.36,18.08q1.37,1.41,2.79,2.7c5,4.51,10.32,7.83,15.4,9.35l-6.17,6.28c-5-.59-12.54-4.87-18.82-11.34S42.21,58.69,41.66,53.73Z"/><path class="cls-4" d="M37.3,58.15c1.73,6,5.83,12.37,11.37,18.08,5.69,5.87,12.14,10.23,18.18,12l-6.16,6.28h0c-5-.59-12.54-4.87-18.81-11.34S31.69,69.37,31.14,64.41l6.16-6.26Z"/><path class="cls-2" d="M26.82,68.83c1.72,6,5.82,12.38,11.36,18.09,5.7,5.88,12.14,10.23,18.19,12l-5.19,5.3-21.12-8.6L21.63,74.13Z"/><path class="cls-3" d="M22.7,91l3,7.62a2.61,2.61,0,0,0,1.43,1.47l7.48,3.05-7.29,17a40.8,40.8,0,0,1-11.23-7.48l6.43-1.63a2.64,2.64,0,0,0-.56-5.2h0a2.71,2.71,0,0,0-.69.08L12,108.31A42.27,42.27,0,0,1,6,98.46L22.7,91Z"/><g class="cls-5"><path d="M145.87,59.09h-2.93L151.43,36h2.89l8.49,23.13h-2.94L153,39.62h-.18Zm1.09-9h11.83v2.48H147Z"/><path d="M166.06,59.09V41.75h2.58v2.71h.22a4.43,4.43,0,0,1,1.75-2.17,5.35,5.35,0,0,1,2.91-.77,5.06,5.06,0,0,1,2.86.77,5.21,5.21,0,0,1,1.79,2.17h.18a5,5,0,0,1,2-2.14,6.12,6.12,0,0,1,3.19-.8A5.21,5.21,0,0,1,187.35,43a6.06,6.06,0,0,1,1.48,4.51V59.09h-2.67V47.48a3.27,3.27,0,0,0-1-2.74,3.88,3.88,0,0,0-2.47-.83A3.62,3.62,0,0,0,179.81,45a4,4,0,0,0-1,2.78V59.09h-2.71V47.21a3.16,3.16,0,0,0-1-2.39,3.47,3.47,0,0,0-2.47-.91,3.62,3.62,0,0,0-1.94.56A4.08,4.08,0,0,0,169.28,46a4.47,4.47,0,0,0-.55,2.25V59.09Z"/><path d="M201,59.45a8.12,8.12,0,0,1-4.32-1.11,7.3,7.3,0,0,1-2.79-3.12,10.53,10.53,0,0,1-1-4.67,10.79,10.79,0,0,1,1-4.7,7.6,7.6,0,0,1,2.73-3.18,7.3,7.3,0,0,1,4.11-1.15,8.22,8.22,0,0,1,2.67.45,6.62,6.62,0,0,1,2.41,1.46,7.19,7.19,0,0,1,1.73,2.68,11.27,11.27,0,0,1,.64,4.08v1.13H194.79V49h10.66a5.71,5.71,0,0,0-.58-2.62,4.54,4.54,0,0,0-1.65-1.82,4.68,4.68,0,0,0-2.51-.67,4.81,4.81,0,0,0-2.75.79,5.16,5.16,0,0,0-1.78,2,6,6,0,0,0-.62,2.69V51a7.46,7.46,0,0,0,.68,3.33,4.87,4.87,0,0,0,1.9,2.06,5.59,5.59,0,0,0,2.84.71,5.69,5.69,0,0,0,1.9-.3,4.07,4.07,0,0,0,1.48-.9,4.25,4.25,0,0,0,1-1.51l2.57.72a5.7,5.7,0,0,1-1.37,2.3,6.62,6.62,0,0,1-2.37,1.54A8.82,8.82,0,0,1,201,59.45Z"/><path d="M212.23,59.09V41.75h2.57v2.62H215a4.16,4.16,0,0,1,1.72-2.09,5,5,0,0,1,2.8-.8h.73c.3,0,.52,0,.67,0v2.71l-.61-.11a6.72,6.72,0,0,0-1-.07,4.73,4.73,0,0,0-2.25.52A4,4,0,0,0,215.46,46a3.89,3.89,0,0,0-.57,2.1v11Z"/><path d="M225.42,38.86a1.86,1.86,0,0,1-1.34-.54,1.68,1.68,0,0,1-.56-1.27,1.72,1.72,0,0,1,.56-1.28,2,2,0,0,1,2.68,0,1.71,1.71,0,0,1,.55,1.28,1.67,1.67,0,0,1-.55,1.27A1.87,1.87,0,0,1,225.42,38.86Zm-1.36,20.23V41.75h2.67V59.09Z"/><path d="M238.65,59.45a7.26,7.26,0,0,1-6.91-4.32,10.81,10.81,0,0,1-1-4.62,10.65,10.65,0,0,1,1-4.67,7.63,7.63,0,0,1,2.73-3.17,7.3,7.3,0,0,1,4.11-1.15,7.74,7.74,0,0,1,3.29.68,6.36,6.36,0,0,1,2.41,1.89,6,6,0,0,1,1.16,2.85h-2.66a4.31,4.31,0,0,0-1.35-2.11,4.12,4.12,0,0,0-2.81-.92,4.68,4.68,0,0,0-2.73.81A5.36,5.36,0,0,0,234.11,47a8.3,8.3,0,0,0-.65,3.43,8.75,8.75,0,0,0,.64,3.5,5.29,5.29,0,0,0,1.8,2.32,4.72,4.72,0,0,0,2.75.82,4.82,4.82,0,0,0,1.89-.36,3.91,3.91,0,0,0,1.43-1,4,4,0,0,0,.84-1.63h2.66a6.11,6.11,0,0,1-1.11,2.76,6.22,6.22,0,0,1-2.34,2A7.6,7.6,0,0,1,238.65,59.45Z"/><path d="M254.46,59.5a7,7,0,0,1-3-.63,5.07,5.07,0,0,1-2.14-1.82,5.13,5.13,0,0,1-.79-2.88,4.47,4.47,0,0,1,.59-2.42,4.18,4.18,0,0,1,1.57-1.47,8.3,8.3,0,0,1,2.18-.79c.79-.18,1.59-.32,2.39-.43l2.57-.31a4,4,0,0,0,1.45-.36,1,1,0,0,0,.46-.91v-.09a3.55,3.55,0,0,0-.91-2.59,3.7,3.7,0,0,0-2.75-.93,4.88,4.88,0,0,0-3,.83,5,5,0,0,0-1.52,1.79l-2.53-.9a6.1,6.1,0,0,1,1.81-2.47,6.78,6.78,0,0,1,2.49-1.24,10.26,10.26,0,0,1,2.66-.36,11.09,11.09,0,0,1,1.92.2,6.15,6.15,0,0,1,2.11.81,4.61,4.61,0,0,1,1.7,1.84,6.74,6.74,0,0,1,.68,3.29V59.09h-2.66V56.74h-.14a4.65,4.65,0,0,1-.9,1.21,5.16,5.16,0,0,1-1.68,1.1A6.53,6.53,0,0,1,254.46,59.5Zm.41-2.4a5.27,5.27,0,0,0,2.67-.62,4.24,4.24,0,0,0,1.65-1.6,4.15,4.15,0,0,0,.56-2.07V50.37a1.56,1.56,0,0,1-.74.37,11.4,11.4,0,0,1-1.31.28l-1.44.21-1.12.14a10.39,10.39,0,0,0-1.94.43,3.37,3.37,0,0,0-1.44.89,2.28,2.28,0,0,0-.55,1.61,2.37,2.37,0,0,0,1,2.1A4.58,4.58,0,0,0,254.87,57.1Z"/><path d="M270,48.66V59.09h-2.67V41.75h2.58v2.71h.22a5.08,5.08,0,0,1,1.85-2.13,5.79,5.79,0,0,1,3.21-.81,6.31,6.31,0,0,1,3.08.72,4.93,4.93,0,0,1,2.06,2.17,8,8,0,0,1,.73,3.66v11h-2.66V48.25a4.55,4.55,0,0,0-1.06-3.19,3.8,3.8,0,0,0-2.92-1.15,4.57,4.57,0,0,0-2.27.56,4,4,0,0,0-1.58,1.61A5.4,5.4,0,0,0,270,48.66Z"/></g><g class="cls-5"><path d="M163.53,75h-2.8a5.81,5.81,0,0,0-.86-2.12,6.07,6.07,0,0,0-1.49-1.54,6.74,6.74,0,0,0-1.94-1,7.71,7.71,0,0,0-2.21-.31,7,7,0,0,0-3.8,1.06,7.32,7.32,0,0,0-2.7,3.13,13.35,13.35,0,0,0,0,10.14,7.32,7.32,0,0,0,2.7,3.13,7,7,0,0,0,3.8,1.06,7.72,7.72,0,0,0,2.21-.32,6.46,6.46,0,0,0,1.94-.94,6,6,0,0,0,1.49-1.55,5.81,5.81,0,0,0,.86-2.12h2.8a9.27,9.27,0,0,1-1.15,3.18,8.81,8.81,0,0,1-2.08,2.38,9,9,0,0,1-2.78,1.48,10.45,10.45,0,0,1-3.29.51A9.62,9.62,0,0,1,149,89.76a9.85,9.85,0,0,1-3.63-4.11,15.79,15.79,0,0,1,0-12.64A9.94,9.94,0,0,1,149,68.89a9.7,9.7,0,0,1,5.26-1.44,10.45,10.45,0,0,1,3.29.51,9,9,0,0,1,2.78,1.48,8.62,8.62,0,0,1,2.08,2.37A9.2,9.2,0,0,1,163.53,75Z"/><path d="M172.79,91.3a7,7,0,0,1-3-.63,4.93,4.93,0,0,1-2.92-4.7,4.49,4.49,0,0,1,.58-2.42A4.26,4.26,0,0,1,169,82.08a8.3,8.3,0,0,1,2.18-.79c.79-.18,1.59-.32,2.4-.43l2.57-.31a4,4,0,0,0,1.44-.36,1,1,0,0,0,.46-.91v-.09a3.51,3.51,0,0,0-.91-2.59,3.69,3.69,0,0,0-2.75-.93,4.77,4.77,0,0,0-3,.84,4.9,4.9,0,0,0-1.53,1.78l-2.53-.9a6.11,6.11,0,0,1,1.82-2.47,6.66,6.66,0,0,1,2.48-1.24,10.31,10.31,0,0,1,2.66-.36,11,11,0,0,1,1.92.2,6.2,6.2,0,0,1,2.12.81,4.76,4.76,0,0,1,1.7,1.84,6.86,6.86,0,0,1,.67,3.29V90.89h-2.66V88.54h-.14a4.65,4.65,0,0,1-.9,1.21,5.16,5.16,0,0,1-1.68,1.1A6.53,6.53,0,0,1,172.79,91.3Zm.41-2.4a5.27,5.27,0,0,0,2.67-.62,4.24,4.24,0,0,0,1.65-1.6,4.13,4.13,0,0,0,.56-2.07V82.17a1.51,1.51,0,0,1-.74.37,11.4,11.4,0,0,1-1.31.28l-1.44.21-1.12.14a10.39,10.39,0,0,0-1.94.43,3.43,3.43,0,0,0-1.44.89,2.28,2.28,0,0,0-.55,1.61,2.39,2.39,0,0,0,1,2.1A4.58,4.58,0,0,0,173.2,88.9Z"/><path d="M188.29,80.46V90.89h-2.67V73.55h2.58v2.71h.22a5.08,5.08,0,0,1,1.85-2.13,5.79,5.79,0,0,1,3.21-.81,6.31,6.31,0,0,1,3.08.72,4.87,4.87,0,0,1,2.06,2.17,8.06,8.06,0,0,1,.73,3.66v11h-2.66V80.05a4.57,4.57,0,0,0-1.06-3.19,3.8,3.8,0,0,0-2.92-1.14,4.57,4.57,0,0,0-2.27.55,4,4,0,0,0-1.58,1.61A5.4,5.4,0,0,0,188.29,80.46Z"/><path d="M210.78,91.25a6.74,6.74,0,0,1-3.83-1.1A7.33,7.33,0,0,1,204.36,87a11.2,11.2,0,0,1-.94-4.78,11,11,0,0,1,.94-4.74,7.25,7.25,0,0,1,2.6-3.1,6.93,6.93,0,0,1,3.87-1.1,5.48,5.48,0,0,1,2.68.56A4.71,4.71,0,0,1,215,75.14c.35.48.63.86.82,1.16h.23V67.76h2.66V90.89h-2.57V88.23h-.32c-.19.31-.47.71-.83,1.19a4.9,4.9,0,0,1-1.55,1.27A5.42,5.42,0,0,1,210.78,91.25Zm.36-2.39a4.33,4.33,0,0,0,2.71-.84,5.22,5.22,0,0,0,1.69-2.34,10.72,10.72,0,0,0,0-6.87,5.11,5.11,0,0,0-1.67-2.28,4.52,4.52,0,0,0-2.74-.81,4.44,4.44,0,0,0-2.81.86,5.24,5.24,0,0,0-1.69,2.34,9.28,9.28,0,0,0-.56,3.3,9.48,9.48,0,0,0,.57,3.36,5.41,5.41,0,0,0,1.7,2.39A4.38,4.38,0,0,0,211.14,88.86Z"/><path d="M225.69,97.35a5.54,5.54,0,0,1-1.21-.11,3.77,3.77,0,0,1-.73-.2l.67-2.35a3.9,3.9,0,0,0,2.43,0,3.69,3.69,0,0,0,1.68-2.33L229,91l-6.41-17.43h2.89l4.79,13.82h.18l4.78-13.82,2.92,0-7.39,19.83a7.56,7.56,0,0,1-1.23,2.2,4.61,4.61,0,0,1-1.7,1.3A5.22,5.22,0,0,1,225.69,97.35Z"/></g></g></g></svg>