<svg xmlns="http://www.w3.org/2000/svg" viewBox="0 0 64 64"><path d="M29.72 52a3 3 0 1 1-3-3A3 3 0 0 1 29.72 52zM49.42 52a3 3 0 1 1-3-3A3 3 0 0 1 49.42 52zM48.41 47.2H24.59a4.34 4.34 0 0 1-4.28-3.58L16.66 23.34a2.45 2.45 0 0 1 2.41-2.88h33.3a4.35 4.35 0 0 1 4.25 5.28l-4 18A4.37 4.37 0 0 1 48.41 47.2zM19.73 23.46l3.53 19.63a1.35 1.35 0 0 0 1.33 1.11H48.41a1.34 1.34 0 0 0 1.32-1.06l4-18a1.35 1.35 0 0 0-1.32-1.64z"/><path d="M19.29,30.87a1.5,1.5,0,0,1-1.47-1.21L15.24,16.58a.5.5,0,0,0-.49-.4h-6a1.5,1.5,0,1,1,0-3h6A3.51,3.51,0,0,1,18.18,16l2.58,13.08a1.5,1.5,0,0,1-1.47,1.79Z"/></svg>