<?xml version="1.0" encoding="UTF-8" standalone="no"?>
<!DOCTYPE svg PUBLIC "-//W3C//DTD SVG 1.1//EN" "http://www.w3.org/Graphics/SVG/1.1/DTD/svg11.dtd">
<svg width="100%" height="100%" viewBox="0 0 68 68" version="1.1" xmlns="http://www.w3.org/2000/svg" xmlns:xlink="http://www.w3.org/1999/xlink" xml:space="preserve" xmlns:serif="http://www.serif.com/" style="fill-rule:evenodd;clip-rule:evenodd;stroke-linejoin:round;stroke-miterlimit:2;">
    <path d="M16.657,65.05L13.825,59.452L54.176,59.452L51.343,65.05C51.041,65.648 50.428,66.025 49.757,66.025L18.243,66.025C17.573,66.025 16.96,65.648 16.657,65.05Z" style="fill:white;fill-rule:nonzero;"/>
    <path d="M54.179,59.456L51.339,65.046C51.039,65.646 50.429,66.026 49.759,66.026L18.239,66.026C17.569,66.026 16.959,65.646 16.659,65.046C43.579,65.796 46.889,60.516 46.889,60.516L46.549,59.456L54.179,59.456Z" style="fill:rgb(222,225,230);fill-rule:nonzero;"/>
    <rect x="13.825" y="12.639" width="40.351" height="46.813" style="fill:rgb(255,183,77);"/>
    <path d="M54.179,12.636L54.179,59.456L13.829,59.456L13.829,55.716C57.649,53.396 47.629,12.636 47.629,12.636L54.179,12.636Z" style="fill:rgb(230,165,69);fill-rule:nonzero;"/>
    <path d="M17.151,6.955L13.825,12.639L54.176,12.639L50.85,6.955L17.151,6.955Z" style="fill:rgb(222,225,230);fill-rule:nonzero;"/>
    <path d="M50.681,6.955L17.32,6.955C14.058,6.955 14.061,2.025 17.32,2.025C51.727,2.298 51.068,1.376 52.42,2.75C52.871,3.194 52.889,6.955 50.681,6.955Z" style="fill:rgb(222,225,230);fill-rule:nonzero;"/>
    <path d="M13.825,36.045L54.176,36.045" style="fill:none;fill-rule:nonzero;"/>
    <circle cx="34" cy="36.045" r="11" style="fill:white;"/>
    <path d="M55.135,12.385C55.115,12.305 55.075,12.215 55.035,12.135C55.025,12.105 55.005,12.085 54.985,12.055L52.275,7.405C52.695,7.095 53.035,6.635 53.275,6.055C53.795,4.785 53.845,2.745 53.135,2.045C52.205,1.105 51.605,0.975 48.205,0.975C47.185,0.975 45.865,0.985 44.165,1.005C39.145,1.055 31.115,1.135 17.325,1.025C15.055,1.025 13.875,2.765 13.875,4.495C13.875,5.715 14.475,6.955 15.635,7.555L13.015,12.055C12.995,12.085 12.975,12.105 12.965,12.135C12.915,12.215 12.885,12.305 12.865,12.385C12.835,12.465 12.825,12.555 12.825,12.635L12.825,59.455C12.825,59.525 12.835,59.605 12.855,59.685C12.875,59.755 12.895,59.825 12.935,59.895C12.945,59.935 12.975,59.975 12.995,60.015L15.765,65.505C16.245,66.445 17.195,67.025 18.245,67.025L49.755,67.025C50.815,67.025 51.765,66.445 52.235,65.505L55.005,60.015C55.025,59.975 55.055,59.935 55.065,59.895C55.105,59.825 55.125,59.755 55.145,59.685C55.165,59.605 55.175,59.525 55.175,59.455L55.175,12.635C55.175,12.555 55.165,12.465 55.135,12.385ZM53.175,35.045L45.965,35.045C45.455,28.895 40.275,24.045 34.005,24.045C27.725,24.045 22.555,28.895 22.045,35.045L14.825,35.045L14.825,13.635L53.175,13.635L53.175,35.045ZM43.955,37.045C43.455,42.085 39.175,46.045 34.005,46.045C28.825,46.045 24.555,42.085 24.055,37.045C24.025,36.715 24.005,36.385 24.005,36.045C24.005,35.705 24.025,35.375 24.055,35.045C24.555,30.005 28.825,26.045 34.005,26.045C39.697,26.045 44.515,30.896 43.955,37.045ZM14.825,37.045L22.045,37.045C22.555,43.195 27.725,48.045 34.005,48.045C40.275,48.045 45.455,43.195 45.965,37.045L53.175,37.045L53.175,58.455L14.825,58.455L14.825,37.045ZM17.315,3.025C22.295,3.065 26.545,3.075 30.175,3.075C36.585,3.075 40.975,3.035 44.185,3.005C45.875,2.985 47.185,2.975 48.205,2.975C50.935,2.975 51.285,3.055 51.615,3.355C51.705,3.755 51.705,4.965 51.245,5.625C51.055,5.915 50.855,5.955 50.685,5.955L17.325,5.955C16.255,5.955 15.875,5.165 15.875,4.495C15.875,3.815 16.255,3.025 17.315,3.025ZM17.725,7.955L50.275,7.955L52.435,11.635L15.565,11.635L17.725,7.955ZM50.455,64.595C50.315,64.865 50.055,65.025 49.755,65.025L18.245,65.025C17.945,65.025 17.685,64.865 17.545,64.595L15.455,60.455L52.545,60.455L50.455,64.595Z" style="fill-rule:nonzero;"/>
    <g transform="matrix(0.361766,0,0,0.385129,34.0005,36.045)">
        <g transform="matrix(1,0,0,1,-12,-12)">
            <clipPath id="_clip1">
                <rect x="0" y="0" width="24" height="24"/>
            </clipPath>
            <g clip-path="url(#_clip1)">
                <path d="M14.42,3C13.796,2.999 13.177,3.094 12.582,3.282C12.749,2.432 13.18,1.81 13.58,1.257C13.701,1.089 13.817,0.929 13.919,0.773C13.972,0.692 14,0.597 14,0.5C14,0.226 13.774,-0 13.5,-0C13.331,-0 13.173,0.085 13.081,0.227C12.988,0.37 12.881,0.517 12.77,0.671C12.515,1.024 12.216,1.441 11.971,1.949C11.247,0.673 9.876,0 8.5,0C8.226,0 8,0.226 8,0.5C8,1.616 8.407,2.419 8.966,3C3.854,3.005 0,7.517 0,13.5C0,19.486 3.858,24 8.974,24C9.713,24 10.451,23.907 11.167,23.723C11.514,23.633 11.881,23.633 12.227,23.723C12.944,23.907 13.681,24 14.421,24C19.703,24 24,19.29 24,13.5C24,7.71 19.703,3 14.42,3Z" style="fill:rgb(0,3,4);fill-rule:nonzero;"/>
                <path d="M11.437,3.313C9.994,2.823 9.231,2.1 9.045,1.044C10.139,1.224 11.175,1.954 11.437,3.313Z" style="fill:rgb(156,204,101);fill-rule:nonzero;"/>
                <path d="M14.42,23C13.765,23 13.112,22.917 12.477,22.754C11.966,22.623 11.429,22.623 10.918,22.754C10.283,22.917 9.63,23 8.974,23C4.428,23 1,18.916 1,13.5C1,8.084 4.428,4 8.974,4C9.191,4 9.424,4.012 9.663,4.033L9.713,4.038C9.81,4.047 9.911,4.064 10.01,4.076C11.955,4.387 13,5.812 13,10.5C13,10.774 13.226,11 13.5,11C13.774,11 14,10.774 14,10.5C14,7.494 13.561,5.512 12.548,4.344C13.205,4.127 13.708,4 14.421,4C19.15,4 23,8.262 23,13.5C23,18.738 19.151,23 14.42,23Z" style="fill:rgb(255,183,77);fill-rule:nonzero;"/>
                <path d="M18.68,5.265C19.855,6.891 20.563,8.948 20.563,11.188C20.563,16.426 16.713,20.688 11.983,20.688C11.328,20.688 10.675,20.605 10.04,20.441C9.528,20.31 8.992,20.31 8.48,20.441C7.845,20.605 7.192,20.688 6.536,20.688C5.219,20.69 3.926,20.329 2.8,19.645C4.238,21.72 6.43,23 8.974,23C9.629,23 10.284,22.917 10.918,22.754C11.43,22.623 11.966,22.623 12.478,22.754C13.112,22.917 13.765,23 14.42,23C19.15,23 23,18.738 23,13.5C23,9.979 21.257,6.906 18.68,5.265Z" style="fill-opacity:0.1;fill-rule:nonzero;"/>
            </g>
        </g>
    </g>
</svg>
