<?xml version="1.0" encoding="UTF-8" standalone="no"?>
<!DOCTYPE svg PUBLIC "-//W3C//DTD SVG 1.1//EN" "http://www.w3.org/Graphics/SVG/1.1/DTD/svg11.dtd">
<svg width="100%" height="100%" viewBox="0 0 68 68" version="1.1" xmlns="http://www.w3.org/2000/svg" xmlns:xlink="http://www.w3.org/1999/xlink" xml:space="preserve" xmlns:serif="http://www.serif.com/" style="fill-rule:evenodd;clip-rule:evenodd;stroke-linejoin:round;stroke-miterlimit:2;">
    <path d="M16.657,65.05L13.825,59.452L54.176,59.452L51.343,65.05C51.041,65.648 50.428,66.025 49.757,66.025L18.243,66.025C17.573,66.025 16.96,65.648 16.657,65.05Z" style="fill:white;fill-rule:nonzero;"/>
    <path d="M54.179,59.456L51.339,65.046C51.039,65.646 50.429,66.026 49.759,66.026L18.239,66.026C17.569,66.026 16.959,65.646 16.659,65.046C43.579,65.796 46.889,60.516 46.889,60.516L46.549,59.456L54.179,59.456Z" style="fill:rgb(222,225,230);fill-rule:nonzero;"/>
    <rect x="13.825" y="12.639" width="40.351" height="46.813" style="fill:rgb(0,255,20);"/>
    <path d="M54.179,12.636L54.179,59.456L13.829,59.456L13.829,55.716C57.649,53.396 47.629,12.636 47.629,12.636L54.179,12.636Z" style="fill:rgb(78,183,86);fill-rule:nonzero;"/>
    <path d="M17.151,6.955L13.825,12.639L54.176,12.639L50.85,6.955L17.151,6.955Z" style="fill:rgb(222,225,230);fill-rule:nonzero;"/>
    <path d="M50.681,6.955L17.32,6.955C14.058,6.955 14.061,2.025 17.32,2.025C51.727,2.298 51.068,1.376 52.42,2.75C52.871,3.194 52.889,6.955 50.681,6.955Z" style="fill:rgb(222,225,230);fill-rule:nonzero;"/>
    <path d="M13.825,36.045L54.176,36.045" style="fill:none;fill-rule:nonzero;"/>
    <circle cx="34" cy="36.045" r="11" style="fill:white;"/>
    <path d="M55.135,12.385C55.115,12.305 55.075,12.215 55.035,12.135C55.025,12.105 55.005,12.085 54.985,12.055L52.275,7.405C52.695,7.095 53.035,6.635 53.275,6.055C53.795,4.785 53.845,2.745 53.135,2.045C52.205,1.105 51.605,0.975 48.205,0.975C47.185,0.975 45.865,0.985 44.165,1.005C39.145,1.055 31.115,1.135 17.325,1.025C15.055,1.025 13.875,2.765 13.875,4.495C13.875,5.715 14.475,6.955 15.635,7.555L13.015,12.055C12.995,12.085 12.975,12.105 12.965,12.135C12.915,12.215 12.885,12.305 12.865,12.385C12.835,12.465 12.825,12.555 12.825,12.635L12.825,59.455C12.825,59.525 12.835,59.605 12.855,59.685C12.875,59.755 12.895,59.825 12.935,59.895C12.945,59.935 12.975,59.975 12.995,60.015L15.765,65.505C16.245,66.445 17.195,67.025 18.245,67.025L49.755,67.025C50.815,67.025 51.765,66.445 52.235,65.505L55.005,60.015C55.025,59.975 55.055,59.935 55.065,59.895C55.105,59.825 55.125,59.755 55.145,59.685C55.165,59.605 55.175,59.525 55.175,59.455L55.175,12.635C55.175,12.555 55.165,12.465 55.135,12.385ZM53.175,35.045L45.965,35.045C45.455,28.895 40.275,24.045 34.005,24.045C27.725,24.045 22.555,28.895 22.045,35.045L14.825,35.045L14.825,13.635L53.175,13.635L53.175,35.045ZM43.955,37.045C43.455,42.085 39.175,46.045 34.005,46.045C28.825,46.045 24.555,42.085 24.055,37.045C24.025,36.715 24.005,36.385 24.005,36.045C24.005,35.705 24.025,35.375 24.055,35.045C24.555,30.005 28.825,26.045 34.005,26.045C39.697,26.045 44.515,30.896 43.955,37.045ZM14.825,37.045L22.045,37.045C22.555,43.195 27.725,48.045 34.005,48.045C40.275,48.045 45.455,43.195 45.965,37.045L53.175,37.045L53.175,58.455L14.825,58.455L14.825,37.045ZM17.315,3.025C22.295,3.065 26.545,3.075 30.175,3.075C36.585,3.075 40.975,3.035 44.185,3.005C45.875,2.985 47.185,2.975 48.205,2.975C50.935,2.975 51.285,3.055 51.615,3.355C51.705,3.755 51.705,4.965 51.245,5.625C51.055,5.915 50.855,5.955 50.685,5.955L17.325,5.955C16.255,5.955 15.875,5.165 15.875,4.495C15.875,3.815 16.255,3.025 17.315,3.025ZM17.725,7.955L50.275,7.955L52.435,11.635L15.565,11.635L17.725,7.955ZM50.455,64.595C50.315,64.865 50.055,65.025 49.755,65.025L18.245,65.025C17.945,65.025 17.685,64.865 17.545,64.595L15.455,60.455L52.545,60.455L50.455,64.595Z" style="fill-rule:nonzero;"/>
    <g transform="matrix(0.190927,0,0,0.205869,34.0038,36.045)">
        <g transform="matrix(1,0,0,1,-32,-32)">
            <path d="M48.9,24.564C48.733,24.219 48.383,24 48,24L37.58,24L45.904,6.428C45.967,6.294 46,6.148 46,5.999C46,5.451 45.549,5 45.001,5C45.001,5 45,5 45,5L29,5C28.607,5 28.248,5.232 28.087,5.591L15.087,34.591C15.03,34.719 15,34.859 15,35C15,35.549 15.451,36 16,36L25.759,36L21.023,57.787C21.008,57.857 21,57.929 21,58.001C21,58.549 21.451,59.001 22,59.001C22.306,59.001 22.596,58.86 22.786,58.619L48.786,25.619C49.022,25.319 49.067,24.908 48.9,24.564Z" style="fill:rgb(255,241,118);fill-rule:nonzero;"/>
            <path d="M48.9,24.564C48.733,24.219 48.383,24 48,24L37.58,24L45.904,6.428C45.967,6.294 46,6.148 46,5.999C46,5.451 45.549,5 45.001,5C45.001,5 45,5 45,5L29,5C28.607,5 28.248,5.232 28.087,5.591L15.087,34.591C15.03,34.719 15,34.859 15,35C15,35.549 15.451,36 16,36L25.759,36L21.023,57.787C21.008,57.857 21,57.929 21,58.001C21,58.549 21.451,59.001 22,59.001C22.306,59.001 22.596,58.86 22.786,58.619L48.786,25.619C49.022,25.319 49.067,24.908 48.9,24.564ZM23.898,53.975L27.977,35.213C27.992,35.143 28,35.071 28,34.999C28,34.451 27.549,34 27.001,34C27.001,34 27,34 27,34L17.544,34L29.647,7L43.42,7L35.096,24.572C35.033,24.706 35,24.852 35,25.001C35,25.549 35.451,26 35.999,26C35.999,26 36,26 36,26L45.939,26L23.898,53.975Z" style="fill-rule:nonzero;"/>
        </g>
    </g>
</svg>
