<?xml version="1.0" encoding="UTF-8" standalone="no"?>
<!DOCTYPE svg PUBLIC "-//W3C//DTD SVG 1.1//EN" "http://www.w3.org/Graphics/SVG/1.1/DTD/svg11.dtd">
<svg width="100%" height="100%" viewBox="0 0 64 64" version="1.1" xmlns="http://www.w3.org/2000/svg" xmlns:xlink="http://www.w3.org/1999/xlink" xml:space="preserve" xmlns:serif="http://www.serif.com/" style="fill-rule:evenodd;clip-rule:evenodd;stroke-linejoin:round;stroke-miterlimit:2;">
    <g transform="matrix(1,0,0,1,0,-1058.54)">
        <path d="M32.001,1061.54C15.984,1061.54 3,1074.52 3,1090.54C3,1106.56 15.984,1119.54 32.001,1119.54C48.017,1119.54 61.001,1106.56 61.001,1090.54C61.001,1074.52 48.017,1061.54 32.001,1061.54ZM32.001,1083.54C32.001,1083.54 32.001,1083.54 32.001,1083.54C35.841,1083.54 39.001,1086.7 39.001,1090.54C39.001,1090.54 39.001,1090.54 39.001,1090.54C39.001,1094.38 35.841,1097.54 32.001,1097.54C32.001,1097.54 32.001,1097.54 32.001,1097.54C28.16,1097.54 25,1094.38 25,1090.54C25,1090.54 25,1090.54 25,1090.54C25,1086.7 28.16,1083.54 32.001,1083.54Z" style="fill:rgb(252,184,96);fill-rule:nonzero;"/>
        <path d="M32.001,1061.54C15.984,1061.54 3,1074.52 3,1090.54C3.015,1097.96 5.872,1105.1 10.988,1110.48C12.453,1109.29 13.351,1107.54 16,1107.54C20,1107.54 20,1111.54 24,1111.54C28.001,1111.54 28.001,1107.54 32.001,1107.54C36.001,1107.54 36.001,1111.54 40.001,1111.54C44.001,1111.54 44.001,1107.54 48.001,1107.54C50.66,1107.54 51.555,1109.31 53.028,1110.49C58.142,1105.11 60.996,1097.97 61.001,1090.54C61.001,1074.52 48.017,1061.54 32.001,1061.54ZM32.001,1083.54C32.001,1083.54 32.001,1083.54 32.001,1083.54C35.841,1083.54 39.001,1086.7 39.001,1090.54C39.001,1090.54 39.001,1090.54 39.001,1090.54C39.001,1094.38 35.841,1097.54 32.001,1097.54C32.001,1097.54 32.001,1097.54 32.001,1097.54C28.16,1097.54 25,1094.38 25,1090.54C25,1090.54 25,1090.54 25,1090.54C25,1086.7 28.16,1083.54 32.001,1083.54Z" style="fill:rgb(255,106,185);fill-rule:nonzero;"/>
        <path d="M37.343,1062.04C49.33,1065.97 58.001,1077.25 58.001,1090.54C58.001,1103.84 49.33,1115.11 37.343,1119.04C50.806,1116.53 61.001,1104.73 61.001,1090.54C61.001,1076.35 50.806,1064.55 37.343,1062.04Z" style="fill:rgb(251,176,79);fill-rule:nonzero;"/>
        <path d="M37.35,1062.04C49.334,1065.97 58.001,1077.25 58.001,1090.54C58.001,1097.55 55.587,1103.99 51.554,1109.1C52.042,1109.57 52.499,1110.07 53.028,1110.49C58.142,1105.11 60.996,1097.97 61.001,1090.54C61.001,1076.35 50.81,1064.55 37.35,1062.04Z" style="fill:rgb(181,32,111);fill-rule:nonzero;"/>
        <path d="M32.001,1060.54C15.444,1060.54 2,1073.99 2,1090.54C2,1107.1 15.444,1120.54 32.001,1120.54C43.153,1120.54 52.9,1114.45 58.068,1105.41C58.733,1104.25 56.991,1103.25 56.325,1104.41C55.372,1106.08 54.246,1107.64 52.982,1109.07C51.797,1107.93 50.661,1106.54 48.005,1106.54C43.521,1106.54 43.389,1110.54 40.003,1110.54C36.616,1110.54 36.485,1106.54 32.001,1106.54C27.517,1106.54 27.385,1110.54 23.999,1110.54C20.612,1110.54 20.48,1106.54 15.996,1106.54C13.336,1106.54 12.201,1107.93 11.014,1109.08C6.652,1104.14 4.002,1097.66 4.002,1090.54C4.002,1075.07 16.525,1062.54 32.001,1062.54C47.477,1062.54 60.001,1075.07 60.001,1090.54C60.001,1092.21 59.853,1093.84 59.573,1095.43C59.309,1096.77 61.338,1097.12 61.544,1095.78C61.844,1094.08 62.001,1092.33 62.001,1090.54C62.001,1073.99 48.558,1060.54 32.001,1060.54L32.001,1060.54ZM26.295,1066.83L23.289,1069.84C22.288,1070.78 23.768,1072.25 24.708,1071.25L27.706,1068.25C28.772,1067.18 27.088,1066.04 26.295,1066.83ZM36.3,1068.25L39.298,1071.25C40.237,1072.26 41.717,1070.78 40.716,1069.84L37.71,1066.84C36.739,1065.87 35.343,1067.3 36.3,1068.25ZM29.776,1075.23L32.774,1078.22C33.713,1079.23 35.194,1077.76 34.192,1076.81L31.186,1073.81C30.215,1072.84 28.808,1074.26 29.776,1075.23ZM18.284,1077.23L21.282,1080.23C22.221,1081.24 23.701,1079.77 22.7,1078.82L19.694,1075.82C18.722,1074.85 17.384,1076.33 18.284,1077.23ZM44.29,1075.83L41.286,1078.84C40.284,1079.78 41.763,1081.25 42.702,1080.25L45.7,1077.25C46.766,1076.19 45.083,1075.04 44.29,1075.83ZM50.286,1081.24L53.282,1084.23C54.222,1085.24 55.702,1083.77 54.7,1082.82L51.696,1079.82C50.725,1078.85 49.329,1080.28 50.286,1081.24ZM12.289,1079.83L9.283,1082.84C8.282,1083.78 9.762,1085.26 10.701,1084.25L13.699,1081.25C14.765,1080.19 13.082,1079.04 12.289,1079.83ZM32.001,1082.54C27.594,1082.54 23.999,1086.14 23.999,1090.54C23.999,1094.95 27.594,1098.55 32.001,1098.55C36.407,1098.55 40.003,1094.95 40.003,1090.54C40.003,1086.14 36.407,1082.54 32.001,1082.54ZM32.001,1084.54C35.326,1084.54 38.003,1087.22 38.003,1090.54C38.003,1093.87 35.326,1096.55 32.001,1096.55C28.675,1096.55 25.999,1093.87 25.999,1090.54C25.999,1087.22 28.675,1084.54 32.001,1084.54ZM19.315,1087.81L16.311,1090.81C15.309,1091.76 16.79,1093.23 17.729,1092.22L20.725,1089.22C21.792,1088.16 20.107,1087.02 19.315,1087.81ZM43.276,1089.23L46.274,1092.22C47.214,1093.23 48.694,1091.76 47.692,1090.81L44.686,1087.81C43.716,1086.84 42.441,1088.39 43.276,1089.23ZM10.301,1096.25L13.297,1099.25C14.236,1100.26 15.717,1098.79 14.715,1097.84L11.711,1094.84C10.739,1093.86 9.431,1095.38 10.301,1096.25ZM52.292,1094.83L49.288,1097.84C48.287,1098.79 49.765,1100.26 50.704,1099.25L53.702,1096.25C54.768,1095.19 53.084,1094.04 52.292,1094.83ZM58.554,1099.46C58.441,1099.8 58.318,1100.13 58.193,1100.46C57.622,1101.75 59.632,1102.51 60.06,1101.17C60.194,1100.82 60.324,1100.45 60.445,1100.09C60.832,1098.65 58.853,1098.34 58.554,1099.46L58.554,1099.46ZM25.307,1100.82L22.303,1103.83C21.302,1104.77 22.78,1106.24 23.719,1105.24L26.717,1102.24C27.783,1101.17 26.101,1100.03 25.307,1100.82ZM37.286,1102.24L40.282,1105.24C41.221,1106.24 42.702,1104.77 41.7,1103.83L38.696,1100.82C37.725,1099.85 36.4,1101.35 37.286,1102.24ZM15.996,1108.54C19.395,1108.54 19.426,1112.54 23.999,1112.54C28.571,1112.54 28.602,1108.54 32.001,1108.54C35.399,1108.54 35.431,1112.54 40.003,1112.54C44.575,1112.54 44.606,1108.54 48.005,1108.54C49.705,1108.54 50.575,1109.54 51.581,1110.54C46.534,1115.49 39.632,1118.54 32.001,1118.54C24.368,1118.54 17.459,1115.49 12.41,1110.55C13.42,1109.55 14.291,1108.54 15.996,1108.54Z" style="fill-rule:nonzero;"/>
    </g>
</svg>
