<?xml version="1.0" encoding="UTF-8" standalone="no"?>
<!DOCTYPE svg PUBLIC "-//W3C//DTD SVG 1.1//EN" "http://www.w3.org/Graphics/SVG/1.1/DTD/svg11.dtd">
<svg width="100%" height="100%" viewBox="0 0 48 48" version="1.1" xmlns="http://www.w3.org/2000/svg" xmlns:xlink="http://www.w3.org/1999/xlink" xml:space="preserve" xmlns:serif="http://www.serif.com/" style="fill-rule:evenodd;clip-rule:evenodd;stroke-linejoin:round;stroke-miterlimit:2;">
    <path d="M38.2,6.1L9.9,6.1C6.1,17.8 6.1,30.3 9.9,42L38.2,42C41.9,30.3 41.9,17.7 38.2,6.1Z" style="fill:rgb(254,18,41);fill-rule:nonzero;"/>
    <path d="M40.5,0.8L7.5,0.8L9.8,6.1L38.2,6.1L40.5,0.8Z" style="fill:rgb(246,31,44);fill-rule:nonzero;"/>
    <path d="M38.2,6.8L9.8,6.8C9.5,6.8 9.2,6.6 9.1,6.4L6.8,1.1C6.7,0.9 6.7,0.6 6.9,0.4C7,0.2 7.2,0 7.5,0L40.5,0C40.8,0 41,0.1 41.1,0.3C41.2,0.5 41.3,0.8 41.2,1L38.9,6.3C38.7,6.6 38.5,6.8 38.2,6.8ZM10.3,5.3L37.6,5.3L39.3,1.5L8.7,1.5L10.3,5.3Z" style="fill-rule:nonzero;"/>
    <path d="M7.5,47.2L40.5,47.2L38.2,41.9L9.8,41.9L7.5,47.2Z" style="fill:rgb(246,31,44);fill-rule:nonzero;"/>
    <path d="M40.5,48L7.5,48C7.2,48 7,47.9 6.9,47.7C6.8,47.5 6.7,47.2 6.8,47L9.1,41.7C9.2,41.4 9.5,41.3 9.8,41.3L38.1,41.3C38.4,41.3 38.7,41.5 38.8,41.7L41.1,47C41.2,47.2 41.2,47.5 41,47.7C41,47.8 40.8,48 40.5,48ZM8.7,46.5L39.4,46.5L37.7,42.7L10.3,42.7L8.7,46.5Z" style="fill-rule:nonzero;"/>
    <path d="M25.6,41.9L19.6,41.9C19.1,40.2 18.8,38.5 18.8,36.7C18.8,31.8 20.7,27.3 23.9,24C22.5,26.3 21.7,29 21.7,31.8C21.9,35.7 23.3,39.2 25.6,41.9Z" style="fill:rgb(246,31,44);fill-rule:nonzero;"/>
    <path d="M39.8,35.6C39.4,37.6 38.9,39.6 38.3,41.6C35,40.9 31.9,39.2 29.4,36.7C25.9,33.2 24.1,28.7 24,24.1C24.7,26.7 26,29.1 28,31.1C31.3,34.3 35.6,35.8 39.8,35.6Z" style="fill:rgb(246,31,44);fill-rule:nonzero;"/>
    <path d="M41,23.2C41,25 41,26.9 40.8,28.7C39.5,29 38.1,29.2 36.7,29.2C31.8,29.2 27.3,27.3 24,24.1C26.3,25.4 29,26.2 31.8,26.2C35.3,26.1 38.4,25 41,23.2ZM40.1,13.7C39.2,15.5 38.1,17.1 36.6,18.6C33.1,22.1 28.6,23.9 24,24C26.6,23.3 29,22 31,20C34.8,16.2 36.2,11 35.3,6.1L38.2,6.1C39,8.6 39.6,11.2 40.1,13.7Z" style="fill:rgb(246,31,44);fill-rule:nonzero;"/>
    <path d="M24,24C25.3,21.7 26.1,19 26.1,16.2C26.1,12.3 24.7,8.8 22.3,6.1L28.2,6.1C28.7,7.8 29,9.5 29,11.3C29.1,16.2 27.2,20.7 24,24Z" style="fill:rgb(246,31,44);fill-rule:nonzero;"/>
    <path d="M24,24C23.3,21.4 22,19 20,16.9C16.7,13.7 12.4,12.1 8.2,12.4C8.6,10.4 9.1,8.4 9.7,6.5C13,7.2 16.1,8.9 18.6,11.4C22.1,14.9 23.9,19.4 24,24Z" style="fill:rgb(246,31,44);fill-rule:nonzero;"/>
    <path d="M24,24C21.7,22.6 19,21.8 16.2,21.8C12.8,21.8 9.6,22.9 7,24.8C7,23 7,21.2 7.2,19.3C8.5,19 9.9,18.8 11.3,18.8C16.2,18.9 20.7,20.9 24,24Z" style="fill:rgb(246,31,44);fill-rule:nonzero;"/>
    <path d="M16.9,28C13.1,31.8 11.7,37 12.6,41.9L9.8,41.9C9,39.4 8.3,36.8 7.9,34.2C8.8,32.4 9.9,30.8 11.4,29.3C14.9,25.8 19.4,24 24,23.9C21.4,24.7 19,26 16.9,28Z" style="fill:rgb(246,31,44);fill-rule:nonzero;"/>
    <g transform="matrix(0.959299,-0.282392,0.282392,0.959299,-5.80143,7.75434)">
        <ellipse cx="24" cy="24" rx="12.9" ry="8.8" style="fill:white;"/>
    </g>
    <path d="M21.4,34C19.8,34 18.2,33.8 16.8,33.3C13.8,32.3 11.7,30.4 10.9,27.9C9.4,22.8 14.1,17 21.3,14.9C24.7,13.9 28.3,13.9 31.2,14.8C34.2,15.8 36.3,17.7 37.1,20.2C37.8,22.7 37.1,25.5 35.1,27.9C33.1,30.3 30.2,32.2 26.7,33.2C24.9,33.7 23.1,34 21.4,34ZM26.6,15.5C25,15.5 23.4,15.7 21.7,16.2C15.3,18.1 11.1,23.1 12.4,27.4C13,29.4 14.7,31 17.3,31.8C20,32.7 23.2,32.6 26.3,31.7C29.5,30.8 32.2,29.1 33.9,26.9C35.6,24.8 36.2,22.5 35.6,20.5C35,18.5 33.3,16.9 30.7,16.1C29.5,15.7 28,15.5 26.6,15.5Z" style="fill-rule:nonzero;"/>
    <path d="M38.2,42.7L9.8,42.7C9.5,42.7 9.2,42.5 9.1,42.2C5.2,30.3 5.2,17.7 9.1,5.9C9.2,5.6 9.5,5.4 9.8,5.4L38.1,5.4C38.4,5.4 38.7,5.6 38.8,5.9C42.7,17.8 42.7,30.4 38.8,42.2C38.8,42.5 38.5,42.7 38.2,42.7ZM10.4,41.2L37.6,41.2C41.1,29.9 41.1,18.1 37.6,6.8L10.4,6.8C6.8,18.1 6.8,29.9 10.4,41.2Z" style="fill-rule:nonzero;"/>
    <g transform="matrix(0.397366,-0.148333,0.148333,0.397366,4.79426,18.3308)">
        <text x="19.838px" y="25.923px" style="font-family:'Inter-Regular_Medium', 'Inter', sans-serif;font-size:6.67px;">T<tspan x="23.59px " y="25.923px ">o</tspan>o Hot T<tspan x="50.393px " y="25.923px ">o</tspan></text>
        <text x="16.1px" y="32.593px" style="font-family:'Inter-Regular_Medium', 'Inter', sans-serif;font-size:6.67px;">Handle Chips</text>
    </g>
</svg>
