<?xml version="1.0" encoding="UTF-8" standalone="no"?>
<!DOCTYPE svg PUBLIC "-//W3C//DTD SVG 1.1//EN" "http://www.w3.org/Graphics/SVG/1.1/DTD/svg11.dtd">
<svg width="100%" height="100%" viewBox="0 0 64 64" version="1.1" xmlns="http://www.w3.org/2000/svg" xmlns:xlink="http://www.w3.org/1999/xlink" xml:space="preserve" xmlns:serif="http://www.serif.com/" style="fill-rule:evenodd;clip-rule:evenodd;stroke-linejoin:round;stroke-miterlimit:2;">
    <g>
        <path d="M57.456,15.029L56.749,11.494L53.213,10.787L52.506,7.251L48.971,6.544L48.263,3.009L41.192,10.08L53.92,22.808L60.991,15.737L57.456,15.029Z" style="fill:rgb(170,249,186);fill-rule:nonzero;"/>
        <g transform="matrix(0.707107,0.707107,-0.707107,0.707107,32,-13.2548)">
            <rect x="23" y="10" width="18" height="44" style="fill:rgb(249,225,9);"/>
        </g>
        <g transform="matrix(0.707107,0.707107,-0.707107,0.707107,32,-13.2548)">
            <rect x="28" y="15" width="8" height="34" style="fill:rgb(245,172,178);"/>
        </g>
        <path d="M6.544,48.971L7.251,52.506L10.787,53.213L11.494,56.749L15.029,57.456L15.737,60.991L22.808,53.92L10.08,41.192L3.009,48.263L6.544,48.971Z" style="fill:rgb(170,249,186);fill-rule:nonzero;"/>
        <path d="M46.849,22.808L53.92,22.808L41.192,10.08L41.192,17.151L46.849,22.808Z" style="fill:rgb(147,197,206);fill-rule:nonzero;"/>
        <path d="M41.192,17.151L41.192,10.08L10.08,41.192L17.151,41.192L41.192,17.151Z" style="fill:rgb(147,197,206);fill-rule:nonzero;"/>
        <path d="M17.151,41.192L10.08,41.192L22.808,53.92L22.808,46.849L17.151,41.192Z" style="fill:rgb(147,197,206);fill-rule:nonzero;"/>
        <path d="M46.849,22.808L22.808,46.849L22.808,53.92L53.92,22.808L46.849,22.808Z" style="fill:rgb(147,197,206);fill-rule:nonzero;"/>
        <path d="M50.678,14.565L43.692,7.58L41.192,10.08L53.92,22.808L60.991,15.737L58.37,15.212C56,16.891 52.734,16.616 50.678,14.565ZM13.678,50.565L7.192,44.08L3.009,48.263L6.544,48.971L7.251,52.506L10.787,53.213L11.494,56.749L15.029,57.456L15.737,60.991L22.808,53.92L20.566,51.679C18.275,52.821 15.492,52.371 13.678,50.565Z" style="fill:rgb(170,249,186);fill-rule:nonzero;"/>
        <path d="M61.948,15.447C61.841,15.094 61.548,14.828 61.187,14.756L58.306,14.18L57.729,11.3C57.65,10.905 57.34,10.595 56.945,10.516L54.062,9.939L53.486,7.057C53.407,6.662 53.097,6.352 52.702,6.273L49.82,5.694L49.244,2.813C49.151,2.347 48.738,2.008 48.263,2.008C47.999,2.008 47.744,2.113 47.557,2.3L17.343,32.515C17.163,32.701 17.062,32.951 17.062,33.21C17.062,33.758 17.514,34.21 18.062,34.21C18.321,34.21 18.571,34.109 18.757,33.929L40.192,12.494L40.192,16.737L36.879,20.05C36.699,20.236 36.598,20.486 36.598,20.745C36.598,21.293 37.05,21.745 37.598,21.745C37.857,21.745 38.107,21.644 38.293,21.464L41.193,18.564L45.437,22.807L22.808,45.435L18.565,41.192L35.465,24.292C35.66,24.104 35.77,23.844 35.77,23.573C35.77,23.024 35.319,22.573 34.77,22.573C34.499,22.573 34.239,22.683 34.051,22.878L16.737,40.192L12.494,40.192L15.929,36.757C16.124,36.569 16.234,36.309 16.234,36.038C16.234,35.489 15.783,35.038 15.234,35.038C14.963,35.038 14.703,35.148 14.515,35.343L2.3,47.557C2.113,47.744 2.008,47.999 2.008,48.264C2.008,48.738 2.345,49.15 2.81,49.244L5.692,49.821L6.271,52.7C6.35,53.095 6.66,53.405 7.055,53.484L9.937,54.061L10.514,56.943C10.608,57.407 11.02,57.744 11.494,57.744C12.043,57.744 12.494,57.292 12.494,56.744C12.494,56.679 12.488,56.614 12.475,56.55L11.767,53.015C11.688,52.62 11.378,52.31 10.983,52.231L8.1,51.656L7.523,48.774C7.444,48.379 7.134,48.069 6.739,47.99L5.039,47.649L7.253,45.435L18.565,56.749L16.351,58.963L16.01,57.263C15.911,56.804 15.502,56.473 15.032,56.473C14.484,56.473 14.032,56.924 14.032,57.473C14.032,57.534 14.038,57.595 14.049,57.655L14.756,61.191C14.85,61.656 15.262,61.993 15.736,61.993C16.001,61.993 16.256,61.888 16.443,61.701L61.7,16.443C61.959,16.182 62.055,15.799 61.948,15.447ZM44.021,8.666L55.335,19.979L53.92,21.394L42.606,10.08L44.021,8.666ZM42.192,16.737L42.192,12.494L51.506,21.808L47.264,21.808L42.192,16.737ZM47.264,23.808L51.506,23.808L23.806,51.508L23.806,47.263L47.264,23.808ZM21.808,47.263L21.808,51.506L12.494,42.192L16.737,42.192L21.808,47.263ZM19.979,55.335L8.665,44.021L10.08,42.606L21.394,53.92L19.979,55.335ZM56.749,18.565L45.435,7.252L47.649,5.037L47.99,6.737C48.069,7.132 48.379,7.442 48.774,7.521L51.656,8.098L52.232,10.98C52.311,11.375 52.622,11.685 53.017,11.764L55.899,12.341L56.476,15.223C56.555,15.618 56.865,15.928 57.26,16.007L58.96,16.348L56.749,18.565Z" style="fill-rule:nonzero;"/>
    </g>
</svg>
