<?xml version="1.0" encoding="UTF-8" standalone="no"?><!DOCTYPE svg PUBLIC "-//W3C//DTD SVG 1.1//EN" "http://www.w3.org/Graphics/SVG/1.1/DTD/svg11.dtd"><svg width="100%" height="100%" viewBox="0 0 15377 5131" version="1.1" xmlns="http://www.w3.org/2000/svg" xmlns:xlink="http://www.w3.org/1999/xlink" xml:space="preserve" xmlns:serif="http://www.serif.com/" style="fill-rule:evenodd;clip-rule:evenodd;stroke-linejoin:round;stroke-miterlimit:2;"><rect id="Artboard2" x="0" y="0" width="15376.9" height="5130.89" style="fill:none;"/><clipPath id="_clip1"><rect x="0" y="0" width="15376.9" height="5130.89"/></clipPath><g clip-path="url(#_clip1)"><rect id="Artboard1" x="-407.449" y="-538.93" width="13888.9" height="6232.62" style="fill:none;"/><g id="Artboard11" serif:id="Artboard1"><g><g><g><path d="M3824.68,102.745c-41.667,0.179 -79.092,27.063 -93.588,67.242l-282.325,780.204l-487.12,-199.771c-12.459,-5.075 -25.775,-7.529 -39.163,-7.212c-25.846,0.412 -50.554,11.104 -68.933,29.808l-2076.91,2136.35c-28.346,29.079 -37.154,72.942 -22.341,111.179l177.8,457.559l-747.146,336.325c-49.813,22.362 -73.346,82.529 -52.467,134.129l29.754,73.312c181.538,447.105 529.813,804.925 964.467,991.659l70.875,30.608c50.071,21.521 108.517,-2.483 130.392,-53.571l326.958,-768.508l444.846,182.446c37.179,15.241 79.8,6.179 108.062,-22.95l2076.94,-2136.37c28.171,-29.008 36.962,-72.638 22.317,-110.763l-197.342,-508.72l760.437,-282.755c39.721,-14.675 66.388,-53.641 66.388,-97.066c-0,-13.542 -2.6,-26.963 -7.646,-39.475l-29.754,-73.3c-181.521,-447.088 -529.813,-805.334 -964.467,-992.071l-70.871,-30.208c-12.404,-5.355 -25.708,-8.084 -39.162,-8.042l-0,-0.042Z" style="fill:#000411;"/><path d="M3880.68,347.637c83.317,37.612 162.212,83.008 237.296,134.129l-86.554,357.263c-1.984,8.166 -2.984,16.566 -2.984,24.983c0,56.592 45.275,103.162 100.288,103.162c45.887,0 86.2,-32.404 97.304,-78.195l65.404,-269.859c172.388,156.213 312.625,349.321 406.471,568.721l-662.558,246.092l-96.334,-247.692c-10.091,-26.208 -30.191,-47.037 -55.6,-57.6l-248.262,-101.921l245.529,-679.083Z" style="fill:#fc5d3d;"/><path d="M2967.92,974.774l801.146,329.071l319.941,824.496c-193.733,-31.642 -474.541,-195.471 -709.95,-440.237c-230.079,-239.263 -380.85,-519.505 -411.137,-713.33Z" style="fill:#72c2e9;"/><path d="M2795.22,1125.01c66.879,234.475 226.116,484.292 441.316,708.092c221.354,230.187 471.929,401.2 706.796,472.054l-239.637,246.104l-2.013,-0c-193.925,-23.046 -486.696,-190.954 -730.3,-444.275c-239.117,-248.654 -394,-542.567 -415.454,-736.7l239.292,-245.275Z" style="fill:#fff;"/><path d="M2387.98,1543.89c66.963,234.504 226.471,484.275 441.696,708.092c221.287,230.117 471.687,401.154 706.4,472.067l-239.638,246.12c-0.67,-0.016 -1.337,-0.016 -2.008,0c-193.954,-23.079 -486.7,-190.987 -730.3,-444.275c-239.146,-248.687 -394.017,-542.583 -415.471,-736.7l239.321,-245.304Z" style="fill:#fc5d3d;"/><path d="M1981.13,1962.39c66.987,234.558 226.137,484.733 441.3,708.504c35.387,36.8 71.529,72.1 108.229,105.713c192.733,176.529 400.975,306.754 598.196,366.341l-239.65,246.109c-193.925,-23.05 -487.108,-190.959 -730.696,-444.279c-239.133,-248.655 -394.004,-542.567 -415.458,-736.7l238.079,-245.688Z" style="fill:#72c2e9;"/><path d="M1573.87,2381.3c66.987,234.534 226.112,484.705 441.316,708.48c221.259,230.075 471.655,400.825 706.409,471.67l-239.238,246.105c-0.671,-0.017 -1.341,-0.017 -2.012,-0c-193.938,-23.067 -487.092,-190.975 -730.684,-444.28c-239.308,-248.833 -393.783,-542.595 -415.07,-736.695l239.279,-245.28Z" style="fill:#fff;"/><path d="M1166.65,2799.78c66.8,234.696 225.962,484.979 441.316,708.904c221.217,230.092 471.63,400.8 706.396,471.658l-201.662,207.438l-820.371,-336.742l-327.354,-843.833l201.675,-207.425Z" style="fill:#fc5d3d;"/><path d="M1006.5,3669.78l115.9,298.879c10.091,26.191 30.196,47.037 55.6,57.6l290.546,119.221l-283.109,665.383c-161.516,-72.179 -307.896,-172.458 -436.225,-292.821l249.442,-64.029c45.75,-10.417 78.608,-52.488 78.608,-100.696c0,-56.567 -45.258,-103.121 -100.258,-103.121l-0.283,0c-8.971,-0.121 -17.93,0.984 -26.625,3.3l-360.638,93.038c-92.929,-116.446 -170.733,-245.842 -229.858,-385.875l646.9,-290.879Z" style="fill:#72c2e9;"/></g><g><text x="6070.47px" y="2180.52px" style="font-family:'Inter-Regular_Medium', 'Inter', sans-serif;font-size:2083.33px;">American</text><text x="6070.47px" y="4098.84px" style="font-family:'Inter-Regular_Medium', 'Inter', sans-serif;font-size:2083.33px;">Candy</text></g></g></g></g></g></svg>