<?xml version="1.0" encoding="UTF-8" standalone="no"?><!DOCTYPE svg PUBLIC "-//W3C//DTD SVG 1.1//EN" "http://www.w3.org/Graphics/SVG/1.1/DTD/svg11.dtd"><svg width="100%" height="100%" viewBox="0 0 61030 20623" version="1.1" xmlns="http://www.w3.org/2000/svg" xmlns:xlink="http://www.w3.org/1999/xlink" xml:space="preserve" xmlns:serif="http://www.serif.com/" style="fill-rule:evenodd;clip-rule:evenodd;stroke-linejoin:round;stroke-miterlimit:2;"><rect id="Artboard2" x="-1520.9" y="-428.066" width="64070.4" height="21378.7" style="fill:none;"/><g><rect id="Artboard1" x="-3218.6" y="-2673.61" width="57870.4" height="25969.2" style="fill:none;"/><g id="Artboard11" serif:id="Artboard1"><g><g><g><path d="M15451.4,0.012c-174.012,0.746 -330.308,112.763 -390.847,280.175l-1179.06,3250.85l-2034.34,-832.379c-52.031,-21.146 -107.643,-31.371 -163.554,-30.05c-107.94,1.717 -211.127,46.267 -287.882,124.2l-8673.71,8901.46c-118.381,121.162 -155.165,303.925 -93.302,463.245l742.538,1906.5l-3120.27,1401.35c-208.032,93.175 -306.312,343.871 -219.116,558.871l124.261,305.467c758.149,1862.94 2212.64,3353.85 4027.86,4131.91l295.992,127.534c209.11,89.671 453.195,-10.346 544.551,-223.213l1365.46,-3202.12l1857.79,760.191c155.269,63.504 333.265,25.746 451.294,-95.625l8673.83,-8901.54c117.649,-120.867 154.363,-302.659 93.202,-461.513l-824.151,-2119.67l3175.78,-1178.14c165.885,-61.146 277.253,-223.505 277.253,-404.442c-0,-56.425 -10.858,-112.346 -31.932,-164.479l-124.26,-305.417c-758.078,-1862.87 -2212.64,-3355.56 -4027.86,-4133.63l-295.976,-125.867c-51.802,-22.312 -107.363,-33.683 -163.55,-33.508l-0,-0.175l-0.005,0.012Z" style="fill:#000411;"/><path d="M15685.2,1020.4c347.953,156.716 677.439,345.866 991.009,558.871l-361.472,1488.6c-8.286,34.025 -12.462,69.025 -12.462,104.096c0,235.8 189.08,429.842 418.828,429.842c191.636,-0 359.994,-135.017 406.367,-325.813l273.144,-1124.41c719.936,650.887 1305.6,1455.5 1697.53,2369.67l-2767.01,1025.38l-402.316,-1032.05c-42.142,-109.2 -126.085,-195.987 -232.2,-240l-1036.81,-424.671l1025.39,-2829.51Z" style="fill:#fc5d3d;"/><path d="M11873.3,3633.47l3345.79,1371.13l1336.16,3435.4c-809.079,-131.842 -1981.81,-814.463 -2964.93,-1834.32c-960.869,-996.929 -1590.53,-2164.6 -1717.01,-2972.21Z" style="fill:#72c2e9;"/><path d="M11152.1,4259.45c279.304,976.979 944.318,2017.88 1843.05,2950.38c924.431,959.113 1970.9,1671.67 2951.76,1966.89l-1000.79,1025.43l-8.407,0c-809.88,-96.025 -2032.57,-795.641 -3049.92,-1851.15c-998.614,-1036.06 -1645.44,-2260.7 -1735.04,-3069.58l999.345,-1021.98Z" style="fill:#fff;"/><path d="M9451.32,6004.78c279.655,977.1 945.801,2017.81 1844.64,2950.38c924.151,958.82 1969.89,1671.48 2950.11,1966.94l-1000.79,1025.5c-2.798,-0.066 -5.583,-0.066 -8.385,0c-810.002,-96.162 -2032.58,-795.779 -3049.92,-1851.14c-998.735,-1036.2 -1645.52,-2260.76 -1735.11,-3069.58l999.466,-1022.1Z" style="fill:#fc5d3d;"/><path d="M7752.21,7748.53c279.755,977.325 944.406,2019.72 1842.98,2952.1c147.785,153.334 298.724,300.417 451.992,440.471c804.903,735.538 1674.58,1278.14 2498.22,1526.42l-1000.84,1025.45c-809.88,-96.042 -2034.29,-795.662 -3051.57,-1851.16c-998.68,-1036.06 -1645.46,-2260.7 -1735.06,-3069.58l994.279,-1023.7Z" style="fill:#72c2e9;"/><path d="M6051.39,9493.99c279.755,977.225 944.302,2019.6 1843.05,2952c924.034,958.645 1969.75,1670.1 2950.14,1965.29l-999.119,1025.44c-2.803,-0.071 -5.601,-0.071 -8.403,-0c-809.935,-96.113 -2034.22,-795.729 -3051.52,-1851.17c-999.411,-1036.8 -1644.54,-2260.81 -1733.44,-3069.56l999.29,-1022Z" style="fill:#fff;"/><path d="M4350.74,11237.7c278.974,977.9 943.675,2020.75 1843.05,2953.77c923.859,958.717 1969.65,1670 2950.09,1965.24l-842.192,864.325l-3426.08,-1403.09l-1367.11,-3515.97l842.246,-864.271Z" style="fill:#fc5d3d;"/><path d="M3681.91,14862.7l484.028,1245.33c42.142,109.129 126.106,195.987 232.2,239.999l1213.39,496.755l-1182.34,2772.43c-674.532,-300.746 -1285.85,-718.575 -1821.79,-1220.09l1041.73,-266.787c191.063,-43.404 328.287,-218.7 328.287,-419.567c-0,-235.696 -189.009,-429.671 -418.703,-429.671l-1.182,0c-37.465,-0.504 -74.88,4.1 -111.193,13.75l-1506.12,387.659c-388.095,-485.192 -713.024,-1024.34 -959.945,-1607.81l2701.62,-1212Z" style="fill:#72c2e9;"/></g><g><g transform="matrix(1,0,0,0.997704,0,20.0134)"><text x="22868.5px" y="8715.85px" style="font-family:'Inter-Regular_Medium', 'Inter', sans-serif;font-size:8700.52px;">American</text></g><g transform="matrix(1,0,0,0.997704,0,38.367)"><text x="22868.5px" y="16708.8px" style="font-family:'Inter-Regular_Medium', 'Inter', sans-serif;font-size:8700.52px;">Candy</text></g></g></g></g></g></g></svg>