<?xml version="1.0" encoding="UTF-8" standalone="no"?><!DOCTYPE svg PUBLIC "-//W3C//DTD SVG 1.1//EN" "http://www.w3.org/Graphics/SVG/1.1/DTD/svg11.dtd"><svg width="100%" height="100%" viewBox="0 0 3334 1496" version="1.1" xmlns="http://www.w3.org/2000/svg" xmlns:xlink="http://www.w3.org/1999/xlink" xml:space="preserve" xmlns:serif="http://www.serif.com/" style="fill-rule:evenodd;clip-rule:evenodd;stroke-linejoin:round;stroke-miterlimit:2;"><rect id="Artboard1" x="0" y="0" width="3333.33" height="1495.83" style="fill:none;"/><g id="Artboard11" serif:id="Artboard1"><g><g><g><path d="M1015.71,154.002c-10,0.043 -18.982,6.495 -22.461,16.138l-67.758,187.249l-116.909,-47.945c-2.99,-1.218 -6.186,-1.807 -9.399,-1.731c-6.203,0.099 -12.133,2.665 -16.544,7.154l-498.459,512.725c-6.803,6.979 -8.917,17.506 -5.362,26.683l42.672,109.814l-179.315,80.718c-11.955,5.367 -17.603,19.807 -12.592,32.191l7.141,17.595c43.569,107.305 127.155,193.182 231.472,237.998l17.01,7.346c12.017,5.165 26.044,-0.596 31.294,-12.857l78.47,-184.442l106.763,43.787c8.923,3.658 19.152,1.483 25.935,-5.508l498.466,-512.729c6.761,-6.962 8.871,-17.433 5.356,-26.583l-47.362,-122.093l182.505,-67.861c9.533,-3.522 15.933,-12.874 15.933,-23.296c-0,-3.25 -0.624,-6.471 -1.835,-9.474l-7.141,-17.592c-43.565,-107.301 -127.155,-193.28 -231.472,-238.097l-17.009,-7.25c-2.977,-1.285 -6.17,-1.94 -9.399,-1.93l-0,-0.01Z" style="fill:#000411;"/><path d="M1029.15,212.776c19.996,9.027 38.931,19.922 56.951,32.191l-20.773,85.743c-0.476,1.96 -0.716,3.976 -0.716,5.996c0,13.582 10.866,24.759 24.069,24.759c11.013,-0 20.688,-7.777 23.353,-18.767l15.697,-64.766c41.373,37.491 75.03,83.837 97.553,136.493l-159.014,59.062l-23.12,-59.446c-2.422,-6.29 -7.246,-11.289 -13.344,-13.824l-59.583,-24.461l58.927,-162.98Z" style="fill:#fc5d3d;"/><path d="M810.089,363.289l192.275,78.977l76.786,197.879c-46.496,-7.594 -113.89,-46.913 -170.388,-105.657c-55.219,-57.423 -91.404,-124.681 -98.673,-171.199Z" style="fill:#72c2e9;"/><path d="M768.64,399.346c16.051,56.274 54.268,116.23 105.916,169.942c53.125,55.245 113.263,96.288 169.631,113.293l-57.513,59.065l-0.483,0c-46.542,-5.531 -116.807,-45.829 -175.272,-106.626c-57.388,-59.677 -94.56,-130.216 -99.709,-176.808l57.43,-58.866Z" style="fill:#fff;"/><path d="M670.903,499.878c16.071,56.281 54.353,116.226 106.007,169.942c53.109,55.228 113.205,96.277 169.536,113.296l-57.513,59.069c-0.161,-0.004 -0.321,-0.004 -0.482,-0c-46.549,-5.539 -116.808,-45.837 -175.272,-106.626c-57.395,-59.685 -94.564,-130.22 -99.713,-176.808l57.437,-58.873Z" style="fill:#fc5d3d;"/><path d="M573.258,600.317c16.077,56.294 54.273,116.336 105.912,170.041c8.493,8.832 17.167,17.304 25.975,25.371c46.256,42.367 96.234,73.621 143.567,87.922l-57.516,59.066c-46.542,-5.532 -116.906,-45.83 -175.367,-106.627c-57.392,-59.677 -94.561,-130.216 -99.71,-176.808l57.139,-58.965Z" style="fill:#72c2e9;"/><path d="M475.517,700.855c16.077,56.288 54.267,116.329 105.916,170.035c53.102,55.218 113.197,96.198 169.538,113.201l-57.417,59.065c-0.161,-0.004 -0.322,-0.004 -0.483,-0c-46.545,-5.536 -116.902,-45.834 -175.364,-106.627c-57.434,-59.72 -94.508,-130.223 -99.617,-176.807l57.427,-58.867Z" style="fill:#fff;"/><path d="M377.783,801.291c16.032,56.327 54.231,116.395 105.916,170.137c53.092,55.222 113.191,96.192 169.535,113.198l-48.399,49.785l-196.889,-80.818l-78.565,-202.52l48.402,-49.782Z" style="fill:#fc5d3d;"/><path d="M339.347,1010.09l27.816,71.731c2.422,6.286 7.247,11.289 13.344,13.824l69.731,28.613l-67.946,159.692c-38.764,-17.323 -73.895,-41.39 -104.694,-70.277l59.866,-15.367c10.98,-2.5 18.866,-12.597 18.866,-24.167c0,-13.576 -10.862,-24.749 -24.062,-24.749l-0.068,0c-2.153,-0.029 -4.303,0.236 -6.39,0.792l-86.553,22.329c-22.303,-27.947 -40.976,-59.002 -55.166,-92.61l155.256,-69.811Z" style="fill:#72c2e9;"/></g><g><text x="1554.7px" y="699.413px" style="font-family:'Inter-Regular_Medium', 'Inter', sans-serif;font-size:376.396px;">American</text><text x="1554.7px" y="1075.81px" style="font-family:'Inter-Regular_Medium', 'Inter', sans-serif;font-size:376.396px;">Candy</text></g></g></g></g></svg>