<?xml version="1.0" encoding="UTF-8" standalone="no"?><!DOCTYPE svg PUBLIC "-//W3C//DTD SVG 1.1//EN" "http://www.w3.org/Graphics/SVG/1.1/DTD/svg11.dtd"><svg width="100%" height="100%" viewBox="0 0 134 134" version="1.1" xmlns="http://www.w3.org/2000/svg" xmlns:xlink="http://www.w3.org/1999/xlink" xml:space="preserve" xmlns:serif="http://www.serif.com/" style="fill-rule:evenodd;clip-rule:evenodd;stroke-linejoin:round;stroke-miterlimit:2;"><path d="M54.167,104.167c-27.5,-0 -50,-22.5 -50,-50c-0,-27.5 22.5,-50 50,-50c27.5,-0 50,22.5 50,50c-0,27.5 -22.5,50 -50,50Zm-0,-91.667c-22.917,0 -41.667,18.75 -41.667,41.667c0,22.916 18.75,41.666 41.667,41.666c22.916,0 41.666,-18.75 41.666,-41.666c0,-22.917 -18.75,-41.667 -41.666,-41.667Z" style="fill:#212529;fill-rule:nonzero;"/><path d="M90.34,84.447l37.418,37.419l-5.893,5.892l-37.417,-37.418l5.892,-5.893Z" style="fill:#212529;fill-rule:nonzero;"/></svg>