<?xml version="1.0" encoding="UTF-8" standalone="no"?>
<!DOCTYPE svg PUBLIC "-//W3C//DTD SVG 1.1//EN" "http://www.w3.org/Graphics/SVG/1.1/DTD/svg11.dtd">
<svg width="100%" height="100%" viewBox="0 0 32 32" version="1.1" xmlns="http://www.w3.org/2000/svg" xmlns:xlink="http://www.w3.org/1999/xlink" xml:space="preserve" xmlns:serif="http://www.serif.com/" style="fill-rule:evenodd;clip-rule:evenodd;stroke-linecap:round;stroke-linejoin:round;">
    <path d="M23,11.5C24.371,11.5 25.5,10.371 25.5,9C25.5,7.629 24.371,6.5 23,6.5C23.331,6.066 23.51,5.535 23.51,4.99C23.51,3.624 22.386,2.5 21.02,2.5C21.013,2.5 21.007,2.5 21,2.5C20.818,2.499 20.637,2.519 20.46,2.56C20.238,1.39 19.205,0.535 18.014,0.535C17.218,0.535 16.468,0.916 16,1.56C15.528,0.93 14.786,0.559 13.999,0.559C12.65,0.559 11.532,1.651 11.5,3C11.058,2.646 10.509,2.454 9.944,2.454C8.578,2.454 7.454,3.578 7.454,4.944C7.454,5.509 7.646,6.058 8,6.5C6.629,6.5 5.5,7.629 5.5,9C5.5,10.371 6.629,11.5 8,11.5L23,11.5Z" style="fill:rgb(243,236,207);fill-rule:nonzero;"/>
    <path d="M22.45,12.08C24.108,12.013 25.449,10.659 25.5,9C25.299,7.715 24.285,6.701 23,6.5C23.331,6.066 23.51,5.535 23.51,4.99C23.51,3.624 22.386,2.5 21.02,2.5C21.013,2.5 21.007,2.5 21,2.5C20.818,2.499 20.637,2.519 20.46,2.56C20.238,1.39 19.205,0.535 18.014,0.535C17.218,0.535 16.468,0.916 16,1.56C15.528,0.93 14.786,0.559 13.999,0.559C12.65,0.559 11.532,1.651 11.5,3C11.058,2.646 10.509,2.454 9.944,2.454C8.578,2.454 7.454,3.578 7.454,4.944C7.454,5.509 7.646,6.058 8,6.5C6.696,6.66 5.66,7.696 5.5,9C5.479,10.473 6.547,11.755 8,12" style="fill:none;fill-rule:nonzero;stroke:rgb(254,226,125);stroke-width:1px;"/>
    <path d="M24.4,12.5L22.5,31.5L8.5,31.5L6.61,12.6C6.607,12.567 6.605,12.533 6.605,12.5C6.605,11.951 7.056,11.5 7.605,11.5C7.607,11.5 7.608,11.5 7.61,11.5L23.5,11.5C24.01,11.551 24.403,11.987 24.4,12.5Z" style="fill:rgb(237,71,105);fill-rule:nonzero;"/>
    <path d="M24.4,12.5L22.5,31.5L21.5,31.5L23.5,11.5C24.01,11.551 24.403,11.987 24.4,12.5Z" style="fill:rgb(235,48,74);fill-rule:nonzero;"/>
    <path d="M19.5,31.5L11.5,31.5L9.5,11.5L21.5,11.5L19.5,31.5Z" style="fill:rgb(254,226,125);fill-rule:nonzero;"/>
    <path d="M16.5,31.5L14.5,31.5L13.5,11.5L17.5,11.5L16.5,31.5Z" style="fill:rgb(237,71,105);fill-rule:nonzero;"/>
    <ellipse cx="15.5" cy="21" rx="8" ry="5.5" style="fill:white;"/>
    <path d="M15.5,15.5L15,15.5C19.18,15.68 22.5,18.06 22.5,20.98C22.5,23.9 19.18,26.28 15,26.46L15.5,26.46C19.92,26.46 23.5,24 23.5,20.96C23.5,17.92 19.92,15.5 15.5,15.5Z" style="fill:rgb(225,225,227);fill-rule:nonzero;"/>
    <path d="M15.93,9.5C15.656,9.5 15.43,9.274 15.43,9C15.43,8.63 15.1,8.28 14.59,8.1C14.383,8.042 14.239,7.852 14.239,7.638C14.239,7.542 14.267,7.449 14.32,7.37C14.392,7.26 14.43,7.131 14.43,7C14.43,6.46 13.75,6 12.93,6C12.11,6 11.43,6.46 11.43,7C11.434,7.101 11.462,7.201 11.51,7.29C11.599,7.445 11.599,7.635 11.51,7.79C11.391,7.948 11.195,8.029 11,8L11,7.56L11,8C10.19,8 9.5,8.46 9.5,9C9.5,9.274 9.274,9.5 9,9.5C8.726,9.5 8.5,9.274 8.5,9C8.585,7.937 9.437,7.085 10.5,7C10.655,5.775 11.771,4.883 13,5C14.229,4.883 15.345,5.775 15.5,7C15.515,7.123 15.515,7.247 15.5,7.37C16.102,7.693 16.484,8.317 16.5,9C16.5,9.002 16.5,9.003 16.5,9.005C16.5,9.279 16.274,9.505 16,9.505C15.977,9.505 15.953,9.503 15.93,9.5Z" style="fill:rgb(254,226,125);fill-rule:nonzero;"/>
    <path d="M21,9.72C20.937,9.734 20.873,9.734 20.81,9.72C20.599,9.661 20.452,9.467 20.452,9.248C20.452,9.161 20.476,9.075 20.52,9C20.624,8.564 20.449,8.105 20.08,7.85C19.965,7.753 19.899,7.61 19.899,7.46C19.899,7.31 19.965,7.167 20.08,7.07C20.195,6.998 20.285,6.894 20.34,6.77C20.54,6.28 20.09,5.59 19.34,5.27C18.925,5.08 18.453,5.055 18.02,5.2C17.827,5.276 17.669,5.423 17.58,5.61C17.542,5.702 17.522,5.8 17.52,5.9C17.532,6.066 17.461,6.227 17.33,6.33C17.196,6.433 17.018,6.459 16.86,6.4L16.74,6.4C16.189,6.095 15.501,6.172 15.03,6.59C14.862,6.805 14.551,6.849 14.33,6.69C14.114,6.522 14.073,6.207 14.24,5.99C14.828,5.301 15.778,5.032 16.64,5.31C16.83,4.873 17.192,4.533 17.64,4.37C18.319,4.119 19.069,4.145 19.73,4.44C20.89,4.791 21.584,6.002 21.3,7.18C21.249,7.297 21.185,7.407 21.11,7.51C21.555,8.041 21.678,8.773 21.43,9.42C21.357,9.594 21.189,9.712 21,9.72Z" style="fill:rgb(254,226,125);fill-rule:nonzero;"/>
    <path d="M23.78,6.11C23.928,5.759 24.002,5.381 24,5C24,4.998 24,4.997 24,4.995C24,3.349 22.646,1.995 21,1.995C20.943,1.995 20.887,1.997 20.83,2C20.406,0.806 19.27,0.004 18.003,0.004C17.264,0.004 16.55,0.277 16,0.77C15.451,0.28 14.74,0.01 14.004,0.01C12.656,0.01 11.465,0.919 11.11,2.22C10.759,2.072 10.381,1.998 10,2C8.354,2 7,3.354 7,5C6.998,5.378 7.072,5.752 7.22,6.1C5.913,6.452 4.999,7.647 5,9C5.013,9.837 5.376,10.632 6,11.19L8.05,32L23,32L25,11.19C25.605,10.623 25.949,9.83 25.949,9.001C25.949,7.657 25.045,6.469 23.75,6.11L23.78,6.11ZM7.05,12L9.05,12L9.52,16.74C8.798,17.232 8.182,17.865 7.71,18.6L7.05,12ZM9,31L8.32,24.13C8.929,24.817 9.662,25.384 10.48,25.8L11,31L9,31ZM12,31L11.53,26.28C12.268,26.563 13.037,26.761 13.82,26.87L14,31L12,31ZM16,31L15,31L14.79,27L16.25,27L16,31ZM19,31L17,31L17.2,26.87C17.983,26.761 18.752,26.563 19.49,26.28L19,31ZM22,31L20,31L20.52,25.8C21.338,25.384 22.071,24.817 22.68,24.13L22,31ZM15.5,26C11.36,26 8,23.76 8,21C8,18.24 11.36,16 15.5,16C19.64,16 23,18.24 23,21C23,23.76 19.64,26 15.5,26ZM10.05,12L13.05,12L13.22,15.23C12.274,15.414 11.358,15.731 10.5,16.17L10.05,12ZM14.05,12L17,12L16.85,15.08C15.973,14.973 15.087,14.973 14.21,15.08L14.05,12ZM17.83,15.23L18,12L21,12L20.58,16.17C19.706,15.726 18.773,15.41 17.81,15.23L17.83,15.23ZM23.31,18.6C22.838,17.865 22.222,17.232 21.5,16.74L22,12L24,12L23.31,18.6ZM23,11L8,11C6.903,11 6,10.097 6,9C6,7.903 6.903,7 8,7C8.191,7 8.366,6.891 8.45,6.72C8.535,6.552 8.515,6.349 8.4,6.2C8.14,5.854 8,5.433 8,5C8,3.903 8.903,3 10,3C10.434,3.003 10.855,3.147 11.2,3.41C11.359,3.509 11.561,3.509 11.72,3.41C11.879,3.333 11.986,3.176 12,3C12.005,1.907 12.907,1.01 14,1.01C14.629,1.01 15.223,1.307 15.6,1.81C15.697,1.932 15.844,2.004 16,2.004C16.156,2.004 16.303,1.932 16.4,1.81C16.775,1.303 17.369,1.002 18,1C18.977,0.985 19.829,1.688 20,2.65C20.026,2.785 20.105,2.904 20.22,2.98C20.331,3.057 20.469,3.082 20.6,3.05C20.732,3.022 20.865,3.005 21,3C22.097,3 23,3.903 23,5C22.997,5.434 22.853,5.855 22.59,6.2C22.486,6.357 22.486,6.563 22.59,6.72C22.667,6.879 22.824,6.986 23,7C24.097,7 25,7.903 25,9C25,10.097 24.097,11 23,11ZM21.3,7.18C21.63,5.991 20.947,4.738 19.77,4.37C19.109,4.075 18.359,4.049 17.68,4.3C17.232,4.463 16.87,4.803 16.68,5.24C16.002,5.046 15.272,5.156 14.68,5.54C14.173,5.17 13.557,4.98 12.93,5C11.701,4.883 10.585,5.775 10.43,7C9.367,7.085 8.515,7.937 8.43,9C8.43,9.274 8.656,9.5 8.93,9.5C9.204,9.5 9.43,9.274 9.43,9C9.43,8.46 10.12,8 10.93,8L10.93,7.56L11,8C11.177,8.005 11.345,7.923 11.45,7.78C11.539,7.625 11.539,7.435 11.45,7.28C11.424,7.189 11.417,7.094 11.43,7C11.43,6.46 12.12,6 12.93,6C13.74,6 14.43,6.46 14.43,7C14.43,7.131 14.392,7.26 14.32,7.37C14.267,7.449 14.239,7.542 14.239,7.638C14.239,7.852 14.383,8.042 14.59,8.1C15.1,8.28 15.43,8.63 15.43,9C15.43,9.274 15.656,9.5 15.93,9.5C16.204,9.5 16.43,9.274 16.43,9C16.414,8.317 16.032,7.693 15.43,7.37C15.445,7.247 15.445,7.123 15.43,7C15.427,6.787 15.383,6.576 15.3,6.38C15.767,6.153 16.313,6.153 16.78,6.38L16.9,6.38C17.058,6.439 17.236,6.413 17.37,6.31C17.501,6.207 17.572,6.046 17.56,5.88C17.562,5.78 17.582,5.682 17.62,5.59C17.709,5.403 17.867,5.256 18.06,5.18C18.493,5.035 18.965,5.06 19.38,5.25C20.13,5.57 20.58,6.25 20.38,6.75C20.325,6.874 20.235,6.978 20.12,7.05C20.005,7.147 19.939,7.29 19.939,7.44C19.939,7.59 20.005,7.733 20.12,7.83C20.482,8.099 20.642,8.566 20.52,9C20.49,9.065 20.475,9.135 20.475,9.206C20.475,9.405 20.596,9.585 20.78,9.66C20.843,9.674 20.907,9.674 20.97,9.66C21.17,9.663 21.353,9.544 21.43,9.36C21.678,8.713 21.555,7.981 21.11,7.45C21.182,7.366 21.245,7.276 21.3,7.18ZM11.5,23.5L19.5,23.5L11.5,23.5L11.5,18.5L11.5,23.5ZM12.5,19.5L12.5,22.5L18.5,22.5L12.5,22.5L12.5,19.5Z" style="fill-rule:nonzero;"/>
    <g transform="matrix(0.562237,0,0,0.562237,5.48362,10.992)">
        <text x="7.987px" y="19.613px" style="font-family:'Inter-Regular_Medium', 'Inter', sans-serif;font-size:5px;">Caramel</text>
    </g>
</svg>
