<?xml version="1.0" encoding="UTF-8" standalone="no"?>
<!DOCTYPE svg PUBLIC "-//W3C//DTD SVG 1.1//EN" "http://www.w3.org/Graphics/SVG/1.1/DTD/svg11.dtd">
<svg width="100%" height="100%" viewBox="0 0 64 64" version="1.1" xmlns="http://www.w3.org/2000/svg" xmlns:xlink="http://www.w3.org/1999/xlink" xml:space="preserve" xmlns:serif="http://www.serif.com/" style="fill-rule:evenodd;clip-rule:evenodd;stroke-linejoin:round;stroke-miterlimit:2;">
    <path d="M22.75,4.56C22.75,4.829 22.529,5.05 22.26,5.05L17.09,5.05L17.09,10.22C17.09,10.494 16.864,10.72 16.59,10.72C16.316,10.72 16.09,10.494 16.09,10.22L16.09,4.56C16.09,4.291 16.311,4.07 16.58,4.07L22.24,4.07C22.247,4.07 22.253,4.07 22.26,4.07C22.529,4.07 22.75,4.291 22.75,4.56C22.75,4.56 22.75,4.56 22.75,4.56ZM35.61,4.56C35.61,4.56 35.61,4.56 35.61,4.56C35.61,4.829 35.389,5.05 35.12,5.05C35.117,5.05 35.113,5.05 35.11,5.05L30,5.05L30,10.22C30,10.494 29.774,10.72 29.5,10.72C29.226,10.72 29,10.494 29,10.22L29,4.56C29,4.291 29.221,4.07 29.49,4.07L35.15,4.07C35.407,4.086 35.61,4.302 35.61,4.56ZM48.46,4.56C48.46,4.829 48.239,5.05 47.97,5.05L42.8,5.05L42.8,10.22C42.8,10.494 42.574,10.72 42.3,10.72C42.026,10.72 41.8,10.494 41.8,10.22L41.8,4.56C41.8,4.291 42.021,4.07 42.29,4.07L48,4.07C48.257,4.086 48.46,4.302 48.46,4.56ZM22.75,16.81L22.75,16.82C22.75,17.089 22.529,17.31 22.26,17.31L17.09,17.31L17.09,22.48C17.09,22.754 16.864,22.98 16.59,22.98C16.316,22.98 16.09,22.754 16.09,22.48L16.09,16.81C16.09,16.541 16.311,16.32 16.58,16.32L22.24,16.32C22.247,16.32 22.253,16.32 22.26,16.32C22.529,16.32 22.75,16.541 22.75,16.81ZM35.61,16.81C35.61,17.084 35.384,17.31 35.11,17.31L30,17.31L30,22.48C30,22.754 29.774,22.98 29.5,22.98C29.226,22.98 29,22.754 29,22.48L29,16.81C29,16.541 29.221,16.32 29.49,16.32L35.15,16.32C35.407,16.336 35.61,16.552 35.61,16.81ZM48.46,16.81C48.46,16.813 48.46,16.817 48.46,16.82C48.46,17.089 48.239,17.31 47.97,17.31L42.8,17.31L42.8,22.48C42.8,22.754 42.574,22.98 42.3,22.98C42.026,22.98 41.8,22.754 41.8,22.48L41.8,16.81C41.8,16.541 42.021,16.32 42.29,16.32L48,16.32C48.257,16.336 48.46,16.552 48.46,16.81Z" style="fill-rule:nonzero;"/>
    <path d="M52.84,35.91C52.564,35.789 52.244,35.823 52,36C51.855,36.104 51.705,36.201 51.55,36.29L51.55,1.9C51.55,0.857 50.692,-0 49.65,-0C49.64,-0 49.63,-0 49.62,0L14.37,0C13.328,0 12.47,0.858 12.47,1.9L12.47,31.17C12.236,30.99 11.921,30.951 11.65,31.07C11.356,31.205 11.165,31.497 11.16,31.82L10.71,61C10.71,62.646 12.064,64 13.71,64L50.31,64C51.956,64 53.31,62.646 53.31,61L53.31,36.65C53.309,36.334 53.126,36.045 52.84,35.91ZM38.53,1L49.62,1C50.125,1 50.54,1.415 50.54,1.92L50.54,12.56L38.54,12.56L38.53,1ZM38.53,13.56L50.53,13.56L50.53,25.25L38.53,25.25L38.53,13.56ZM38.53,26.25L50.53,26.25L50.53,36.8C48.309,37.865 45.674,37.626 43.68,36.18C43.38,35.96 43.08,35.72 42.78,35.46L42.78,29.56L48,29.56C48.274,29.56 48.5,29.334 48.5,29.06C48.5,28.786 48.274,28.56 48,28.56L42.3,28.56C42.031,28.56 41.81,28.781 41.81,29.05L41.81,34.61C40.866,33.922 39.67,33.674 38.53,33.93L38.53,26.25ZM26.35,1L37.55,1L37.55,12.56L26.35,12.56L26.35,1ZM26.35,13.56L37.55,13.56L37.55,25.25L26.35,25.25L26.35,13.56ZM26.35,26.25L37.55,26.25L37.55,34.31C37.488,34.332 37.428,34.359 37.37,34.39C36.201,34.982 34.951,35.397 33.66,35.62C32.693,35.803 31.694,35.525 30.96,34.87C30.62,34.56 30.28,34.28 29.96,34.02L29.96,29.57L35.1,29.57C35.374,29.57 35.6,29.344 35.6,29.07C35.6,28.796 35.374,28.57 35.1,28.57L29.45,28.57C29.176,28.57 28.95,28.796 28.95,29.07L28.95,33.27C28.142,32.736 27.268,32.309 26.35,32L26.35,26.25ZM13.45,1.9C13.466,1.405 13.875,1.005 14.37,1L25.37,1L25.37,12.56L13.45,12.56L13.45,1.9ZM13.45,13.54L25.36,13.54L25.36,25.25L13.45,25.25L13.45,13.54ZM13.45,26.23L25.36,26.23L25.36,31.7C24.235,31.485 23.07,31.639 22.04,32.14C20.499,32.932 18.767,33.278 17.04,33.14L17.04,29.57L22.22,29.57C22.494,29.57 22.72,29.344 22.72,29.07C22.72,28.796 22.494,28.57 22.22,28.57L16.59,28.57C16.321,28.57 16.1,28.791 16.1,29.06C16.1,29.063 16.1,29.067 16.1,29.07L16.1,33C15.159,32.793 14.261,32.42 13.45,31.9L13.45,26.23ZM52.3,61C52.3,62.097 51.397,63 50.3,63L13.69,63C13.156,62.998 12.644,62.782 12.27,62.4C11.904,62.026 11.7,61.523 11.7,61L12.14,32.17C13.7,33.42 17.38,35.5 22.47,33.03C23.348,32.601 24.345,32.482 25.3,32.69L25.65,32.79L25.72,32.79C27.436,33.362 29.001,34.312 30.3,35.57C31.259,36.429 32.563,36.798 33.83,36.57C35.224,36.331 36.573,35.879 37.83,35.23C39.021,34.556 40.52,34.726 41.53,35.65C42.023,36.134 42.547,36.585 43.1,37C45.454,38.719 48.591,38.96 51.18,37.62C51.524,37.439 51.858,37.239 52.18,37.02L52.3,61Z" style="fill-rule:nonzero;"/>
    <path d="M51.25,37.55C48.656,38.939 45.484,38.725 43.1,37C42.552,36.595 42.031,36.154 41.54,35.68C40.53,34.756 39.031,34.586 37.84,35.26C36.583,35.909 35.234,36.361 33.84,36.6C32.573,36.828 31.269,36.459 30.31,35.6C29.011,34.342 27.446,33.392 25.73,32.82L25.66,32.82L25.31,32.72C24.355,32.512 23.358,32.631 22.48,33.06C17.39,35.53 13.71,33.45 12.15,32.2L11.7,61C11.692,61.533 11.897,62.049 12.27,62.43C12.644,62.812 13.156,63.028 13.69,63.03L50.31,63.03C51.407,63.03 52.31,62.127 52.31,61.03L52.31,37C51.968,37.204 51.614,37.387 51.25,37.55ZM46.25,56.55C46.25,56.824 46.024,57.05 45.75,57.05L18.26,57.05C17.991,57.05 17.77,56.829 17.77,56.56C17.77,56.557 17.77,56.553 17.77,56.55L17.77,47.5C17.77,47.231 17.991,47.01 18.26,47.01L45.74,47.01C45.743,47.01 45.747,47.01 45.75,47.01C46.019,47.01 46.24,47.231 46.24,47.5L46.25,56.55Z" style="fill:rgb(139,232,138);fill-rule:nonzero;"/>
    <path d="M50.54,26.23L50.54,36.8C48.319,37.865 45.684,37.626 43.69,36.18C43.39,35.96 43.09,35.72 42.79,35.46L42.79,29.56L48,29.56C48.274,29.56 48.5,29.334 48.5,29.06C48.5,28.786 48.274,28.56 48,28.56L42.3,28.56C42.031,28.56 41.81,28.781 41.81,29.05L41.81,34.61C40.866,33.922 39.67,33.674 38.53,33.93L38.53,26.23L50.54,26.23ZM25.36,26.23L25.36,31.7C24.235,31.485 23.07,31.639 22.04,32.14C20.499,32.932 18.767,33.278 17.04,33.14L17.04,29.57L22.22,29.57C22.494,29.57 22.72,29.344 22.72,29.07C22.72,28.796 22.494,28.57 22.22,28.57L16.59,28.57C16.321,28.57 16.1,28.791 16.1,29.06C16.1,29.063 16.1,29.067 16.1,29.07L16.1,33C15.159,32.793 14.261,32.42 13.45,31.9L13.45,26.23L25.36,26.23ZM14.37,1C13.867,1.005 13.455,1.417 13.45,1.92L13.45,12.56L25.36,12.56L25.36,1L14.37,1ZM22.26,5.07L17.09,5.07L17.09,10.24C17.09,10.514 16.864,10.74 16.59,10.74C16.316,10.74 16.09,10.514 16.09,10.24L16.09,4.56C16.09,4.291 16.311,4.07 16.58,4.07L22.24,4.07C22.514,4.07 22.74,4.296 22.74,4.57C22.74,4.844 22.514,5.07 22.24,5.07L22.26,5.07ZM26.35,1L26.35,12.56L37.55,12.56L37.55,1L26.35,1ZM35.15,5.07L30,5.07L30,10.24C30,10.514 29.774,10.74 29.5,10.74C29.226,10.74 29,10.514 29,10.24L29,4.56C29,4.291 29.221,4.07 29.49,4.07L35.15,4.07C35.424,4.07 35.65,4.296 35.65,4.57C35.65,4.844 35.424,5.07 35.15,5.07ZM49.62,1L38.53,1L38.53,12.56L50.53,12.56L50.53,1.9C50.519,1.407 50.113,1.005 49.62,1ZM48,5.05L42.8,5.05L42.8,10.22C42.8,10.494 42.574,10.72 42.3,10.72C42.026,10.72 41.8,10.494 41.8,10.22L41.8,4.56C41.8,4.291 42.021,4.07 42.29,4.07L48,4.07C48.274,4.07 48.5,4.296 48.5,4.57C48.5,4.844 48.274,5.07 48,5.07L48,5.05ZM38.53,13.54L38.53,25.25L50.53,25.25L50.53,13.54L38.53,13.54ZM48,17.31L42.8,17.31L42.8,22.48C42.8,22.754 42.574,22.98 42.3,22.98C42.026,22.98 41.8,22.754 41.8,22.48L41.8,16.81C41.8,16.541 42.021,16.32 42.29,16.32L48,16.32C48.274,16.32 48.5,16.546 48.5,16.82C48.5,17.094 48.274,17.32 48,17.32L48,17.31ZM26.35,13.54L26.35,25.25L37.55,25.25L37.55,13.54L26.35,13.54ZM35.11,17.31L30,17.31L30,22.48C30,22.754 29.774,22.98 29.5,22.98C29.226,22.98 29,22.754 29,22.48L29,16.81C29,16.541 29.221,16.32 29.49,16.32L35.15,16.32C35.424,16.32 35.65,16.546 35.65,16.82C35.65,17.094 35.424,17.32 35.15,17.32L35.11,17.31ZM13.45,13.54L13.45,25.25L25.36,25.25L25.36,13.54L13.45,13.54ZM22.26,17.31L17.09,17.31L17.09,22.48C17.09,22.754 16.864,22.98 16.59,22.98C16.316,22.98 16.09,22.754 16.09,22.48L16.09,16.81C16.09,16.541 16.311,16.32 16.58,16.32L22.24,16.32C22.514,16.32 22.74,16.546 22.74,16.82C22.74,17.094 22.514,17.32 22.24,17.32L22.26,17.31ZM37.55,26.23L37.55,34.29C37.488,34.312 37.428,34.339 37.37,34.37C36.201,34.962 34.951,35.377 33.66,35.6C32.693,35.783 31.694,35.505 30.96,34.85C30.62,34.54 30.28,34.26 29.96,34L29.96,29.57L35.1,29.57C35.374,29.57 35.6,29.344 35.6,29.07C35.6,28.796 35.374,28.57 35.1,28.57L29.45,28.57C29.176,28.57 28.95,28.796 28.95,29.07L28.95,33.27C28.142,32.736 27.268,32.309 26.35,32L26.35,26.23L37.55,26.23Z" style="fill:rgb(234,181,161);fill-rule:nonzero;"/>
    <path d="M45.74,47L18.26,47C17.991,47 17.77,47.221 17.77,47.49L17.77,56.56C17.77,56.563 17.77,56.567 17.77,56.57C17.77,56.839 17.991,57.06 18.26,57.06L45.74,57.06C46.014,57.06 46.24,56.834 46.24,56.56L46.24,47.5C46.24,47.497 46.24,47.493 46.24,47.49C46.24,47.221 46.019,47 45.75,47C45.747,47 45.743,47 45.74,47ZM45.25,56.07L18.75,56.07L18.75,48L45.25,48L45.25,56.07Z" style="fill-rule:nonzero;"/>
    <rect x="18.75" y="47.99" width="26.5" height="8.09" style="fill:white;"/>
    <g transform="matrix(0.908008,0,0,0.908008,7.20911,4.8409)">
        <text x="20.276px" y="54.211px" style="font-family:'Inter-Regular', 'Inter', sans-serif;font-size:6.245px;">Nuts</text>
    </g>
</svg>
