<?xml version="1.0" encoding="UTF-8"?>
<!DOCTYPE svg  PUBLIC '-//W3C//DTD SVG 1.1//EN'  'http://www.w3.org/Graphics/SVG/1.1/DTD/svg11.dtd'>
<svg clip-rule="evenodd" fill-rule="evenodd" stroke-linecap="round" stroke-linejoin="round" version="1.1" viewBox="0 0 32 32" xml:space="preserve" xmlns="http://www.w3.org/2000/svg">
    <path d="m23 11.5c1.371 0 2.5-1.129 2.5-2.5s-1.129-2.5-2.5-2.5c0.331-0.434 0.51-0.965 0.51-1.51 0-1.366-1.124-2.49-2.49-2.49h-0.02c-0.182-1e-3 -0.363 0.019-0.54 0.06-0.222-1.17-1.255-2.025-2.446-2.025-0.796 0-1.546 0.381-2.014 1.025-0.472-0.63-1.214-1.001-2.001-1.001-1.349 0-2.467 1.092-2.499 2.441-0.442-0.354-0.991-0.546-1.556-0.546-1.366 0-2.49 1.124-2.49 2.49 0 0.565 0.192 1.114 0.546 1.556-1.371 0-2.5 1.129-2.5 2.5s1.129 2.5 2.5 2.5h15z" fill="#edd680" fill-rule="nonzero"/>
    <path d="m22.45 12.08c1.658-0.067 2.999-1.421 3.05-3.08-0.201-1.285-1.215-2.299-2.5-2.5 0.331-0.434 0.51-0.965 0.51-1.51 0-1.366-1.124-2.49-2.49-2.49h-0.02c-0.182-1e-3 -0.363 0.019-0.54 0.06-0.222-1.17-1.255-2.025-2.446-2.025-0.796 0-1.546 0.381-2.014 1.025-0.472-0.63-1.214-1.001-2.001-1.001-1.349 0-2.467 1.092-2.499 2.441-0.442-0.354-0.991-0.546-1.556-0.546-1.366 0-2.49 1.124-2.49 2.49 0 0.565 0.192 1.114 0.546 1.556-1.304 0.16-2.34 1.196-2.5 2.5-0.021 1.473 1.047 2.755 2.5 3" fill="none" stroke="#fee27d" stroke-width="1px"/>
    <path d="m24.4 12.5-1.9 19h-14l-1.89-18.9c-3e-3 -0.033-5e-3 -0.067-5e-3 -0.1 0-0.549 0.451-1 1-1h5e-3 15.89c0.51 0.051 0.903 0.487 0.9 1z" fill="#ed4769" fill-rule="nonzero"/>
    <path d="m24.4 12.5-1.9 19h-1l2-20c0.51 0.051 0.903 0.487 0.9 1z" fill="#eb304a" fill-rule="nonzero"/>
    <path d="m19.5 31.5h-8l-2-20h12l-2 20z" fill="#fee27d" fill-rule="nonzero"/>
    <path d="m16.5 31.5h-2l-1-20h4l-1 20z" fill="#ed4769" fill-rule="nonzero"/>
    <ellipse cx="15.5" cy="21" rx="8" ry="5.5" fill="#fff"/>
    <path d="m15.5 15.5h-0.5c4.18 0.18 7.5 2.56 7.5 5.48s-3.32 5.3-7.5 5.48h0.5c4.42 0 8-2.46 8-5.5s-3.58-5.46-8-5.46z" fill="#e1e1e3" fill-rule="nonzero"/>
    <path d="m15.93 9.5c-0.274 0-0.5-0.226-0.5-0.5 0-0.37-0.33-0.72-0.84-0.9-0.207-0.058-0.351-0.248-0.351-0.462 0-0.096 0.028-0.189 0.081-0.268 0.072-0.11 0.11-0.239 0.11-0.37 0-0.54-0.68-1-1.5-1s-1.5 0.46-1.5 1c4e-3 0.101 0.032 0.201 0.08 0.29 0.089 0.155 0.089 0.345 0 0.5-0.119 0.158-0.315 0.239-0.51 0.21v-0.44 0.44c-0.81 0-1.5 0.46-1.5 1 0 0.274-0.226 0.5-0.5 0.5s-0.5-0.226-0.5-0.5c0.085-1.063 0.937-1.915 2-2 0.155-1.225 1.271-2.117 2.5-2 1.229-0.117 2.345 0.775 2.5 2 0.015 0.123 0.015 0.247 0 0.37 0.602 0.323 0.984 0.947 1 1.63v5e-3c0 0.274-0.226 0.5-0.5 0.5-0.023 0-0.047-2e-3 -0.07-5e-3z" fill="#fee27d" fill-rule="nonzero"/>
    <path d="m21 9.72c-0.063 0.014-0.127 0.014-0.19 0-0.211-0.059-0.358-0.253-0.358-0.472 0-0.087 0.024-0.173 0.068-0.248 0.104-0.436-0.071-0.895-0.44-1.15-0.115-0.097-0.181-0.24-0.181-0.39s0.066-0.293 0.181-0.39c0.115-0.072 0.205-0.176 0.26-0.3 0.2-0.49-0.25-1.18-1-1.5-0.415-0.19-0.887-0.215-1.32-0.07-0.193 0.076-0.351 0.223-0.44 0.41-0.038 0.092-0.058 0.19-0.06 0.29 0.012 0.166-0.059 0.327-0.19 0.43-0.134 0.103-0.312 0.129-0.47 0.07h-0.12c-0.551-0.305-1.239-0.228-1.71 0.19-0.168 0.215-0.479 0.259-0.7 0.1-0.216-0.168-0.257-0.483-0.09-0.7 0.588-0.689 1.538-0.958 2.4-0.68 0.19-0.437 0.552-0.777 1-0.94 0.679-0.251 1.429-0.225 2.09 0.07 1.16 0.351 1.854 1.562 1.57 2.74-0.051 0.117-0.115 0.227-0.19 0.33 0.445 0.531 0.568 1.263 0.32 1.91-0.073 0.174-0.241 0.292-0.43 0.3z" fill="#fee27d" fill-rule="nonzero"/>
    <path d="m23.78 6.11c0.148-0.351 0.222-0.729 0.22-1.11v-5e-3c0-1.646-1.354-3-3-3-0.057 0-0.113 2e-3 -0.17 5e-3 -0.424-1.194-1.56-1.996-2.827-1.996-0.739 0-1.453 0.273-2.003 0.766-0.549-0.49-1.26-0.76-1.996-0.76-1.348 0-2.539 0.909-2.894 2.21-0.351-0.148-0.729-0.222-1.11-0.22-1.646 0-3 1.354-3 3-2e-3 0.378 0.072 0.752 0.22 1.1-1.307 0.352-2.221 1.547-2.22 2.9 0.013 0.837 0.376 1.632 1 2.19l2.05 20.81h14.95l2-20.81c0.605-0.567 0.949-1.36 0.949-2.189 0-1.344-0.904-2.532-2.199-2.891h0.03zm-16.73 5.89h2l0.47 4.74c-0.722 0.492-1.338 1.125-1.81 1.86l-0.66-6.6zm1.95 19-0.68-6.87c0.609 0.687 1.342 1.254 2.16 1.67l0.52 5.2h-2zm3 0-0.47-4.72c0.738 0.283 1.507 0.481 2.29 0.59l0.18 4.13h-2zm4 0h-1l-0.21-4h1.46l-0.25 4zm3 0h-2l0.2-4.13c0.783-0.109 1.552-0.307 2.29-0.59l-0.49 4.72zm3 0h-2l0.52-5.2c0.818-0.416 1.551-0.983 2.16-1.67l-0.68 6.87zm-6.5-5c-4.14 0-7.5-2.24-7.5-5s3.36-5 7.5-5 7.5 2.24 7.5 5-3.36 5-7.5 5zm-5.45-14h3l0.17 3.23c-0.946 0.184-1.862 0.501-2.72 0.94l-0.45-4.17zm4 0h2.95l-0.15 3.08c-0.877-0.107-1.763-0.107-2.64 0l-0.16-3.08zm3.78 3.23 0.17-3.23h3l-0.42 4.17c-0.874-0.444-1.807-0.76-2.77-0.94h0.02zm5.48 3.37c-0.472-0.735-1.088-1.368-1.81-1.86l0.5-4.74h2l-0.69 6.6zm-0.31-7.6h-15c-1.097 0-2-0.903-2-2s0.903-2 2-2c0.191 0 0.366-0.109 0.45-0.28 0.085-0.168 0.065-0.371-0.05-0.52-0.26-0.346-0.4-0.767-0.4-1.2 0-1.097 0.903-2 2-2 0.434 3e-3 0.855 0.147 1.2 0.41 0.159 0.099 0.361 0.099 0.52 0 0.159-0.077 0.266-0.234 0.28-0.41 5e-3 -1.093 0.907-1.99 2-1.99 0.629 0 1.223 0.297 1.6 0.8 0.097 0.122 0.244 0.194 0.4 0.194s0.303-0.072 0.4-0.194c0.375-0.507 0.969-0.808 1.6-0.81 0.977-0.015 1.829 0.688 2 1.65 0.026 0.135 0.105 0.254 0.22 0.33 0.111 0.077 0.249 0.102 0.38 0.07 0.132-0.028 0.265-0.045 0.4-0.05 1.097 0 2 0.903 2 2-3e-3 0.434-0.147 0.855-0.41 1.2-0.104 0.157-0.104 0.363 0 0.52 0.077 0.159 0.234 0.266 0.41 0.28 1.097 0 2 0.903 2 2s-0.903 2-2 2zm-1.7-3.82c0.33-1.189-0.353-2.442-1.53-2.81-0.661-0.295-1.411-0.321-2.09-0.07-0.448 0.163-0.81 0.503-1 0.94-0.678-0.194-1.408-0.084-2 0.3-0.507-0.37-1.123-0.56-1.75-0.54-1.229-0.117-2.345 0.775-2.5 2-1.063 0.085-1.915 0.937-2 2 0 0.274 0.226 0.5 0.5 0.5s0.5-0.226 0.5-0.5c0-0.54 0.69-1 1.5-1v-0.44l0.07 0.44c0.177 5e-3 0.345-0.077 0.45-0.22 0.089-0.155 0.089-0.345 0-0.5-0.026-0.091-0.033-0.186-0.02-0.28 0-0.54 0.69-1 1.5-1s1.5 0.46 1.5 1c0 0.131-0.038 0.26-0.11 0.37-0.053 0.079-0.081 0.172-0.081 0.268 0 0.214 0.144 0.404 0.351 0.462 0.51 0.18 0.84 0.53 0.84 0.9 0 0.274 0.226 0.5 0.5 0.5s0.5-0.226 0.5-0.5c-0.016-0.683-0.398-1.307-1-1.63 0.015-0.123 0.015-0.247 0-0.37-3e-3 -0.213-0.047-0.424-0.13-0.62 0.467-0.227 1.013-0.227 1.48 0h0.12c0.158 0.059 0.336 0.033 0.47-0.07 0.131-0.103 0.202-0.264 0.19-0.43 2e-3 -0.1 0.022-0.198 0.06-0.29 0.089-0.187 0.247-0.334 0.44-0.41 0.433-0.145 0.905-0.12 1.32 0.07 0.75 0.32 1.2 1 1 1.5-0.055 0.124-0.145 0.228-0.26 0.3-0.115 0.097-0.181 0.24-0.181 0.39s0.066 0.293 0.181 0.39c0.362 0.269 0.522 0.736 0.4 1.17-0.03 0.065-0.045 0.135-0.045 0.206 0 0.199 0.121 0.379 0.305 0.454 0.063 0.014 0.127 0.014 0.19 0 0.2 3e-3 0.383-0.116 0.46-0.3 0.248-0.647 0.125-1.379-0.32-1.91 0.072-0.084 0.135-0.174 0.19-0.27zm-9.8 16.32h8-8v-5 5zm1-4v3h6-6v-3z" fill-rule="nonzero"/>
    <g transform="matrix(.56224 0 0 .56224 5.413 9.2079)" font-family="'Inter-Regular_Medium', 'Inter', sans-serif" font-size="5px">
        <text x="11.684px" y="19.613px">Extra</text>
        <text x="10.508px" y="24.613px">Butter</text>
    </g>
</svg>
