<?xml version="1.0" encoding="UTF-8" standalone="no"?>
<!DOCTYPE svg PUBLIC "-//W3C//DTD SVG 1.1//EN" "http://www.w3.org/Graphics/SVG/1.1/DTD/svg11.dtd">
<svg width="100%" height="100%" viewBox="0 0 68 68" version="1.1" xmlns="http://www.w3.org/2000/svg" xmlns:xlink="http://www.w3.org/1999/xlink" xml:space="preserve" xmlns:serif="http://www.serif.com/" style="fill-rule:evenodd;clip-rule:evenodd;stroke-linejoin:round;stroke-miterlimit:2;">
    <path d="M16.657,65.05L13.825,59.452L54.176,59.452L51.343,65.05C51.041,65.648 50.428,66.025 49.757,66.025L18.243,66.025C17.573,66.025 16.96,65.648 16.657,65.05Z" style="fill:white;fill-rule:nonzero;"/>
    <path d="M54.179,59.456L51.339,65.046C51.039,65.646 50.429,66.026 49.759,66.026L18.239,66.026C17.569,66.026 16.959,65.646 16.659,65.046C43.579,65.796 46.889,60.516 46.889,60.516L46.549,59.456L54.179,59.456Z" style="fill:rgb(222,225,230);fill-rule:nonzero;"/>
    <rect x="13.825" y="12.639" width="40.351" height="46.813" style="fill:rgb(203,138,206);"/>
    <path d="M54.179,12.636L54.179,59.456L13.829,59.456L13.829,55.716C57.649,53.396 47.629,12.636 47.629,12.636L54.179,12.636Z" style="fill:rgb(205,99,209);fill-rule:nonzero;"/>
    <path d="M17.151,6.955L13.825,12.639L54.176,12.639L50.85,6.955L17.151,6.955Z" style="fill:rgb(222,225,230);fill-rule:nonzero;"/>
    <path d="M50.681,6.955L17.32,6.955C14.058,6.955 14.061,2.025 17.32,2.025C51.727,2.298 51.068,1.376 52.42,2.75C52.871,3.194 52.889,6.955 50.681,6.955Z" style="fill:rgb(222,225,230);fill-rule:nonzero;"/>
    <path d="M13.825,36.045L54.176,36.045" style="fill:none;fill-rule:nonzero;"/>
    <circle cx="34" cy="36.045" r="11" style="fill:white;"/>
    <path d="M55.135,12.385C55.115,12.305 55.075,12.215 55.035,12.135C55.025,12.105 55.005,12.085 54.985,12.055L52.275,7.405C52.695,7.095 53.035,6.635 53.275,6.055C53.795,4.785 53.845,2.745 53.135,2.045C52.205,1.105 51.605,0.975 48.205,0.975C47.185,0.975 45.865,0.985 44.165,1.005C39.145,1.055 31.115,1.135 17.325,1.025C15.055,1.025 13.875,2.765 13.875,4.495C13.875,5.715 14.475,6.955 15.635,7.555L13.015,12.055C12.995,12.085 12.975,12.105 12.965,12.135C12.915,12.215 12.885,12.305 12.865,12.385C12.835,12.465 12.825,12.555 12.825,12.635L12.825,59.455C12.825,59.525 12.835,59.605 12.855,59.685C12.875,59.755 12.895,59.825 12.935,59.895C12.945,59.935 12.975,59.975 12.995,60.015L15.765,65.505C16.245,66.445 17.195,67.025 18.245,67.025L49.755,67.025C50.815,67.025 51.765,66.445 52.235,65.505L55.005,60.015C55.025,59.975 55.055,59.935 55.065,59.895C55.105,59.825 55.125,59.755 55.145,59.685C55.165,59.605 55.175,59.525 55.175,59.455L55.175,12.635C55.175,12.555 55.165,12.465 55.135,12.385ZM53.175,35.045L45.965,35.045C45.455,28.895 40.275,24.045 34.005,24.045C27.725,24.045 22.555,28.895 22.045,35.045L14.825,35.045L14.825,13.635L53.175,13.635L53.175,35.045ZM43.955,37.045C43.455,42.085 39.175,46.045 34.005,46.045C28.825,46.045 24.555,42.085 24.055,37.045C24.025,36.715 24.005,36.385 24.005,36.045C24.005,35.705 24.025,35.375 24.055,35.045C24.555,30.005 28.825,26.045 34.005,26.045C39.697,26.045 44.515,30.896 43.955,37.045ZM14.825,37.045L22.045,37.045C22.555,43.195 27.725,48.045 34.005,48.045C40.275,48.045 45.455,43.195 45.965,37.045L53.175,37.045L53.175,58.455L14.825,58.455L14.825,37.045ZM17.315,3.025C22.295,3.065 26.545,3.075 30.175,3.075C36.585,3.075 40.975,3.035 44.185,3.005C45.875,2.985 47.185,2.975 48.205,2.975C50.935,2.975 51.285,3.055 51.615,3.355C51.705,3.755 51.705,4.965 51.245,5.625C51.055,5.915 50.855,5.955 50.685,5.955L17.325,5.955C16.255,5.955 15.875,5.165 15.875,4.495C15.875,3.815 16.255,3.025 17.315,3.025ZM17.725,7.955L50.275,7.955L52.435,11.635L15.565,11.635L17.725,7.955ZM50.455,64.595C50.315,64.865 50.055,65.025 49.755,65.025L18.245,65.025C17.945,65.025 17.685,64.865 17.545,64.595L15.455,60.455L52.545,60.455L50.455,64.595Z" style="fill-rule:nonzero;"/>
    <g transform="matrix(0.485976,0,0,0.476497,33.9819,35.9661)">
        <g transform="matrix(1,0,0,1,-12,-12)">
            <path d="M17.608,8.674C17.386,8.238 17.161,7.794 16.942,7.342C16.775,6.998 16.613,6.651 16.458,6.299L16.139,5.567C15.085,3.137 14.286,1.344 12.5,1.058L12.5,0.5C12.5,0.226 12.274,0 12,0C11.726,-0 11.5,0.226 11.5,0.5L11.5,1.059C9.724,1.344 8.923,3.135 7.865,5.562L7.542,6.298C7.164,7.157 6.738,7.952 6.327,8.72C5.13,10.955 4,13.065 4,16.5C4,21.617 6.542,24 12,24C17.458,24 20,21.617 20,16.5C20,13.383 18.784,10.989 17.608,8.674Z" style="fill:rgb(0,14,21);fill-rule:nonzero;"/>
            <path d="M12,23C7.093,23 5,21.056 5,16.5C5,13.315 6.073,11.312 7.208,9.192C7.628,8.407 8.063,7.596 8.458,6.702L8.782,5.961C9.979,3.214 10.569,2 12,2C13.44,2 14.03,3.216 15.222,5.965L15.542,6.701C15.912,7.542 16.321,8.348 16.716,9.126C17.891,11.438 19,13.623 19,16.5C19,21.056 16.907,23 12,23Z" style="fill:url(#_Radial1);fill-rule:nonzero;"/>
            <path d="M7,16.5C7,13.315 7.766,11.312 8.577,9.192C8.877,8.407 9.187,7.596 9.47,6.702L9.701,5.961C10.557,3.214 10.978,2 12,2C10.569,2 9.98,3.214 8.782,5.96L8.458,6.702C8.063,7.596 7.628,8.407 7.208,9.192C6.073,11.312 5,13.315 5,16.5C5,21.056 7.093,23 12,23C8.495,23 7,21.056 7,16.5Z" style="fill:white;fill-opacity:0.2;fill-rule:nonzero;"/>
            <path d="M16.716,9.126C16.321,8.348 15.912,7.542 15.542,6.701L15.222,5.965C14.029,3.215 13.44,2 12,2C13.03,2 13.45,3.216 14.301,5.965L14.53,6.701C14.794,7.542 15.086,8.348 15.369,9.126C16.208,11.438 17,13.623 17,16.5C17,21.056 15.505,23 12,23C16.907,23 19,21.056 19,16.5C19,13.623 17.89,11.438 16.716,9.126Z" style="fill-opacity:0.1;fill-rule:nonzero;"/>
            <path d="M12,7.5C10.056,7.5 8,11.87 8,16C8,17.922 8,21.5 12,21.5C16,21.5 16,17.922 16,16C16,11.912 14.47,7.5 12,7.5Z" style="fill:rgb(0,1,1);fill-rule:nonzero;"/>
            <path d="M14.984,16.92C14.963,16.665 14.748,16.466 14.492,16.466C14.221,16.466 13.998,16.689 13.998,16.96C13.998,16.973 13.999,16.987 14,17C14,17.274 14.226,17.5 14.5,17.5C14.726,17.5 14.91,17.347 14.971,17.142C14.861,19.06 14.33,20.5 12,20.5C11.82,20.5 11.653,20.49 11.495,20.474C11.483,20.211 11.263,20.001 11,20C10.82,20 10.669,20.1 10.58,20.244C10.196,20.085 9.867,19.817 9.634,19.473C9.848,19.416 9.998,19.221 10,19C10,18.726 9.774,18.5 9.5,18.5C9.408,18.502 9.318,18.531 9.241,18.583C9.12,18.111 9.049,17.628 9.029,17.142C9.089,17.352 9.282,17.498 9.5,17.5C9.774,17.5 10,17.274 10,17C10,16.726 9.774,16.5 9.5,16.5C9.258,16.502 9.052,16.681 9.016,16.92C9.004,16.613 8.999,16.307 9,16C9,15.3 9.064,14.617 9.17,13.966C9.361,13.896 9.5,13.716 9.5,13.5C9.499,13.358 9.437,13.223 9.33,13.13C9.4,12.822 9.483,12.527 9.57,12.24C9.656,12.401 9.824,12.502 10.006,12.502C10.277,12.502 10.5,12.279 10.5,12.008C10.5,12.005 10.5,12.003 10.5,12C10.5,11.726 10.274,11.5 10,11.5C9.933,11.5 9.867,11.514 9.805,11.54C10.115,10.701 10.478,9.99 10.841,9.468C10.892,9.487 10.946,9.498 11,9.5C11.274,9.5 11.5,9.274 11.5,9C11.499,8.922 11.479,8.846 11.442,8.777C11.646,8.602 11.838,8.5 12,8.5C12.624,8.5 13.232,9.103 13.737,10.068C13.665,10.025 13.584,10.002 13.5,10C13.226,10 13,10.226 13,10.5C13,10.774 13.226,11 13.5,11C13.746,11 13.94,10.82 13.983,10.585C14.109,10.879 14.227,11.195 14.335,11.533C14.132,11.6 13.994,11.791 13.994,12.004C13.994,12.276 14.218,12.5 14.49,12.5C14.493,12.5 14.497,12.5 14.5,12.5C14.534,12.5 14.564,12.487 14.597,12.48C14.781,13.266 14.908,14.123 14.964,15.007C14.698,15.017 14.485,15.238 14.485,15.503C14.485,15.776 14.709,16 14.982,16C14.988,16 14.994,16 15,16C15,16.315 14.996,16.622 14.984,16.92Z" style="fill:rgb(77,77,77);fill-rule:nonzero;"/>
            <circle cx="12.5" cy="9.5" r="0.5"/>
            <circle cx="11" cy="11" r="0.5"/>
            <circle cx="12.5" cy="11.5" r="0.5"/>
            <circle cx="10.5" cy="13.5" r="0.5"/>
            <circle cx="13.5" cy="13" r="0.5"/>
            <circle cx="12" cy="13" r="0.5"/>
            <circle cx="11.5" cy="15.5" r="0.5"/>
            <circle cx="12.5" cy="14.5" r="0.5"/>
            <circle cx="10" cy="15" r="0.5"/>
            <circle cx="14" cy="14.5" r="0.5"/>
            <circle cx="13" cy="16" r="0.5"/>
            <circle cx="12.5" cy="19.5" r="0.5"/>
            <circle cx="11.5" cy="18.5" r="0.5"/>
            <circle cx="13" cy="17.5" r="0.5"/>
            <circle cx="11" cy="17" r="0.5"/>
            <circle cx="14" cy="19" r="0.5"/>
        </g>
    </g>
    <defs>
        <radialGradient id="_Radial1" cx="0" cy="0" r="1" gradientUnits="userSpaceOnUse" gradientTransform="matrix(4.459,0,0,7.12575,11.958,14.6246)"><stop offset="0" style="stop-color:rgb(255,202,40);stop-opacity:1"/><stop offset="0.08" style="stop-color:rgb(255,196,36);stop-opacity:1"/><stop offset="0.63" style="stop-color:rgb(255,161,12);stop-opacity:1"/><stop offset="1" style="stop-color:rgb(255,143,0);stop-opacity:1"/></radialGradient>
    </defs>
</svg>
