<?xml version="1.0" encoding="UTF-8" standalone="no"?><!DOCTYPE svg PUBLIC "-//W3C//DTD SVG 1.1//EN" "http://www.w3.org/Graphics/SVG/1.1/DTD/svg11.dtd"><svg width="100%" height="100%" viewBox="0 0 100 100" version="1.1" xmlns="http://www.w3.org/2000/svg" xmlns:xlink="http://www.w3.org/1999/xlink" xml:space="preserve" xmlns:serif="http://www.serif.com/" style="fill-rule:evenodd;clip-rule:evenodd;stroke-linecap:round;stroke-linejoin:round;"><g><path d="M9.027,15.435c10.021,12.286 24.847,19.699 40.688,20.344c-1.058,-4.313 -1.139,-16.031 7.08,-20.914c3.341,-2.196 7.233,-3.408 11.23,-3.499c5.271,0.012 10.304,2.226 13.874,6.103c4.283,-0.911 8.4,-2.475 12.207,-4.638c-1.336,4.365 -4.234,8.089 -8.138,10.457c3.726,-0.323 7.379,-1.229 10.823,-2.686c-2.592,3.863 -5.875,7.215 -9.684,9.888c2.889,25.918 -20.344,58.143 -53.382,58.143c-10.715,0.058 -21.253,-2.752 -30.516,-8.138c10.201,1.27 20.491,-1.67 28.481,-8.137c-8.912,-0.525 -16.8,-6.047 -20.344,-14.241c4.069,1.302 7.935,1.953 10.172,-0c-9.359,-2.382 -16.108,-10.657 -16.56,-20.304c2.714,2.654 6.377,4.119 10.172,4.069c-8.435,-5.942 -11.081,-17.409 -6.103,-26.447Z" style="fill:none;fill-rule:nonzero;stroke:#000;stroke-width:5.42px;"/></g></svg>