<?xml version="1.0" encoding="UTF-8" standalone="no"?>
<!DOCTYPE svg PUBLIC "-//W3C//DTD SVG 1.1//EN" "http://www.w3.org/Graphics/SVG/1.1/DTD/svg11.dtd">
<svg width="100%" height="100%" viewBox="0 0 256 256" version="1.1" xmlns="http://www.w3.org/2000/svg" xmlns:xlink="http://www.w3.org/1999/xlink" xml:space="preserve" xmlns:serif="http://www.serif.com/" style="fill-rule:evenodd;clip-rule:evenodd;stroke-linejoin:round;stroke-miterlimit:2;">
    <path d="M172.1,109.32L172.1,133.43C172.1,136.75 171.47,140.03 170.26,143.11L169.37,145.37L165.59,154.94C164,159 163.14,163.36 163.14,167.86C163.14,169.27 163.03,170.67 162.82,172.04C162.2,175.97 160.72,179.67 158.53,182.9C156.14,186.44 152.89,189.42 149.01,191.52L149.01,173.53C149.01,168.4 144.85,164.24 139.72,164.24L135.19,164.24C131.36,168.33 124.68,168.37 120.81,164.24L116.28,164.24C111.15,164.24 106.99,168.4 106.99,173.53L106.99,191.51C103.16,189.46 99.89,186.49 97.46,182.9C95.3,179.7 93.8,176 93.19,172.03C92.97,170.66 92.86,169.27 92.86,167.86C92.86,163.44 92.02,159.05 90.41,154.94L86.64,145.37L85.74,143.11C84.53,140.03 83.9,136.75 83.9,133.43L83.9,109.33C112.68,113.55 143.37,113.53 172.1,109.32Z" style="fill:rgb(255,182,159);fill-rule:nonzero;"/>
    <path d="M172.1,109.32L172.1,116.4C143.51,120.5 112.77,120.53 83.9,116.41L83.9,109.33C112.68,113.55 143.37,113.53 172.1,109.32Z" style="fill:rgb(234,143,124);fill-rule:nonzero;"/>
    <path d="M224.5,208.53L224.5,252.69L31.5,252.69L31.5,208.53C31.5,195.14 40.38,183.36 53.26,179.68L79.01,172.33C81.06,173.36 83.38,173.94 85.83,173.94C88.5,173.94 91.02,173.25 93.19,172.03C93.8,176 95.3,179.7 97.46,182.9C99.89,186.49 103.16,189.46 106.99,191.51L106.99,173.53C106.99,168.4 111.15,164.24 116.28,164.24L120.81,164.24C124.68,168.37 131.36,168.33 135.19,164.24L139.72,164.24C144.85,164.24 149.01,168.4 149.01,173.53L149.01,191.52C152.89,189.42 156.14,186.44 158.53,182.9C160.72,179.67 162.2,175.97 162.82,172.04C167.68,174.76 172.83,174.47 176.97,172.32L202.74,179.68C215.62,183.36 224.5,195.13 224.5,208.53Z" style="fill:rgb(114,194,233);fill-rule:nonzero;"/>
    <path d="M82.42,238.43L81.21,252.69L48.12,252.69L49.8,233.11C48.82,243.79 62.18,249.52 69.07,241.48C72.93,237.12 76.99,237.78 82.42,238.43Z" style="fill:rgb(239,239,239);fill-rule:nonzero;"/>
    <path d="M99.74,215.49L97.06,214.82C100.53,215.69 102.51,219.16 101.74,222.47C101.63,222.94 101.47,223.41 101.24,223.87C101,224.35 100.71,224.8 100.37,225.19C98.82,227.02 96.33,227.87 93.92,227.25L91.25,226.58C95.21,227.58 97.25,231.98 95.44,235.64L95.43,235.65C94.09,238.36 91.05,239.78 88.11,239.04L84.08,238.62C83.51,238.56 82.96,238.49 82.42,238.43C76.99,237.78 72.93,237.12 69.07,241.48C62.18,249.52 48.82,243.79 49.8,233.11L50.18,229C51.81,211.22 63.96,196.17 80.98,190.81C79.33,194.54 81.02,198.9 84.75,200.55C88.42,202.16 92.7,200.56 94.39,196.95L102.87,203.05C102.9,203.06 102.94,203.06 102.97,203.08C102.97,203.84 103.14,204.64 103.51,205.37L105.38,209.19C105.84,210.13 106.54,210.87 107.36,211.37C106.39,214.37 103.07,216.34 99.74,215.49Z" style="fill:rgb(255,182,159);fill-rule:nonzero;"/>
    <path d="M155.63,211.99L155.63,252.69L100.37,252.69L100.37,225.19C100.71,224.8 101,224.35 101.24,223.87C101.47,223.41 101.63,222.94 101.74,222.47C102.51,219.16 100.53,215.69 97.06,214.82L99.74,215.49C103.07,216.34 106.39,214.37 107.36,211.37C108.82,212.29 110.74,212.44 112.44,211.62C114.49,210.62 115.6,208.47 115.37,206.32L115.37,206.31C116.37,206.31 121,204.38 121,199.45L121,205.31C121,209.15 123.95,212.49 127.79,212.6C131.17,212.7 134.03,210.41 134.79,207.28L155.63,211.99Z" style="fill:rgb(239,239,239);fill-rule:nonzero;"/>
    <path d="M174.028,55.615C173.749,59.935 173.879,57.64 172.17,94.212C143.634,98.401 112.728,98.457 83.829,94.203C82.166,58.597 82.259,60.046 81.971,55.615C88.065,56.497 94.242,57.203 100.457,57.724C106.551,58.235 112.682,58.579 118.831,58.746C124.934,58.913 131.056,58.913 137.168,58.746C143.317,58.579 149.458,58.235 155.542,57.715C161.766,57.204 167.934,56.498 174.028,55.615Z" style="fill:rgb(114,194,233);fill-rule:nonzero;"/>
    <path d="M179.393,11.108C176.749,25.829 174.955,40.689 174.028,55.615C167.934,56.497 161.766,57.203 155.542,57.714C149.458,58.234 143.317,58.578 137.168,58.745C131.056,58.912 124.934,58.912 118.831,58.745C112.682,58.578 106.551,58.234 100.457,57.723C94.242,57.203 88.065,56.497 81.971,55.614C81.045,40.688 79.25,25.828 76.606,11.107C76.096,8.268 78.295,5.666 81.179,5.666L174.819,5.666C177.704,5.667 179.902,8.27 179.393,11.108Z" style="fill:rgb(252,93,61);fill-rule:nonzero;"/>
    <path d="M118.832,58.746C112.683,58.579 106.552,58.235 100.458,57.724C99.864,40.232 98.563,22.843 96.557,5.667L117.523,5.667C118.191,23.186 118.627,40.91 118.832,58.746ZM159.444,5.667C157.437,22.843 156.137,40.232 155.543,57.715C149.459,58.235 143.318,58.579 137.169,58.746C137.373,40.911 137.81,23.187 138.479,5.667L159.444,5.667ZM129.161,71.078L130.803,74.405C130.992,74.787 131.356,75.052 131.777,75.113L135.448,75.646C136.51,75.8 136.933,77.105 136.165,77.853L133.509,80.442C133.204,80.739 133.065,81.168 133.137,81.588L133.764,85.244C133.945,86.301 132.836,87.107 131.886,86.608L128.603,84.882C128.226,84.684 127.776,84.684 127.399,84.882L124.116,86.608C123.167,87.107 122.057,86.301 122.238,85.244L122.865,81.588C122.937,81.168 122.798,80.74 122.493,80.442L119.837,77.853C119.069,77.104 119.493,75.8 120.554,75.646L124.225,75.113C124.647,75.052 125.011,74.787 125.199,74.405L126.841,71.078C127.314,70.116 128.686,70.116 129.161,71.078ZM156.787,68.775L158.429,72.102C158.618,72.484 158.982,72.749 159.403,72.81L163.074,73.343C164.136,73.497 164.559,74.802 163.791,75.55L161.135,78.139C160.83,78.436 160.691,78.865 160.763,79.285L161.39,82.941C161.571,83.998 160.462,84.804 159.512,84.305L156.229,82.579C155.852,82.381 155.402,82.381 155.025,82.579L151.742,84.305C150.793,84.804 149.683,83.998 149.864,82.941L150.491,79.285C150.563,78.865 150.424,78.437 150.119,78.139L147.463,75.55C146.695,74.801 147.119,73.497 148.18,73.343L151.851,72.81C152.273,72.749 152.637,72.484 152.825,72.102L154.467,68.775C154.941,67.813 156.312,67.813 156.787,68.775ZM101.534,68.775L103.176,72.102C103.365,72.484 103.729,72.749 104.15,72.81L107.821,73.343C108.883,73.497 109.306,74.802 108.538,75.55L105.882,78.139C105.577,78.436 105.438,78.865 105.51,79.285L106.137,82.941C106.318,83.998 105.209,84.804 104.259,84.305L100.976,82.579C100.599,82.381 100.149,82.381 99.772,82.579L96.489,84.305C95.54,84.804 94.43,83.998 94.611,82.941L95.238,79.285C95.31,78.865 95.171,78.437 94.866,78.139L92.21,75.55C91.442,74.801 91.866,73.497 92.927,73.343L96.598,72.81C97.02,72.749 97.384,72.484 97.572,72.102L99.214,68.775C99.688,67.813 101.059,67.813 101.534,68.775ZM205.054,96.739C205.054,100.092 202.769,103.019 199.518,103.855C195.496,104.886 191.399,105.834 187.247,106.679C182.277,107.701 177.215,108.583 172.096,109.317C143.374,113.534 112.682,113.553 83.904,109.326C78.786,108.583 73.742,107.7 68.763,106.679L68.754,106.679C64.602,105.834 60.505,104.886 56.483,103.855C53.222,103.019 50.947,100.093 50.947,96.739C50.947,92.605 54.319,89.391 58.239,89.391C58.806,89.391 59.372,89.456 59.948,89.595C67.686,91.481 75.675,93.013 83.831,94.202C112.73,98.456 143.635,98.401 172.172,94.211C180.365,93.013 188.354,91.471 196.055,89.594C200.642,88.49 205.054,92.02 205.054,96.739Z" style="fill:rgb(239,239,239);fill-rule:nonzero;"/>
    <path d="M183.87,152.34C187.73,160.61 183.64,168.87 176.97,172.32C172.83,174.47 167.68,174.76 162.82,172.04C163.03,170.67 163.14,169.27 163.14,167.86C163.14,163.36 164,159 165.59,154.94L169.37,145.37L170.26,143.11C171.47,140.03 172.1,136.75 172.1,133.43L172.1,109.32C177.21,108.58 182.28,107.7 187.25,106.68C189.22,108.43 190.64,110.59 191.47,112.93C192.95,117.09 192.58,121.83 190.15,125.82C199.9,133.78 196.25,149.59 183.87,152.34Z" style="fill:rgb(239,239,239);fill-rule:nonzero;"/>
    <path d="M191.47,112.93C185.15,114.3 178.68,115.45 172.1,116.39L172.1,109.32C177.21,108.58 182.28,107.7 187.25,106.68C189.22,108.43 190.64,110.59 191.47,112.93Z" style="fill:rgb(175,175,175);fill-rule:nonzero;"/>
    <path d="M93.19,172.03C91.02,173.25 88.5,173.94 85.83,173.94C83.38,173.94 81.06,173.36 79.01,172.33C74.08,169.83 70.69,164.72 70.69,158.8C70.69,156.49 71.21,154.31 72.13,152.34C65.35,150.84 60.27,144.8 60.27,137.56C60.27,132.83 62.45,128.6 65.85,125.82C64.46,123.55 63.65,120.88 63.65,118.01C63.65,116.22 63.96,114.51 64.53,112.93C65.39,110.5 66.86,108.36 68.75,106.68L68.76,106.68C73.74,107.7 78.79,108.58 83.9,109.33L83.9,133.43C83.9,136.75 84.53,140.03 85.74,143.11L86.64,145.37L90.41,154.94C92.02,159.05 92.86,163.44 92.86,167.86C92.86,169.27 92.97,170.66 93.19,172.03Z" style="fill:rgb(239,239,239);fill-rule:nonzero;"/>
    <path d="M68.76,106.68C73.74,107.7 78.79,108.58 83.9,109.33L83.9,116.39C77.35,115.46 70.89,114.31 64.53,112.93C65.39,110.5 66.86,108.36 68.75,106.68L68.76,106.68Z" style="fill:rgb(175,175,175);fill-rule:nonzero;"/>
    <path d="M86.635,145.368C77.996,145.368 72.952,139.228 72.952,132.558C72.952,126.065 77.773,120.751 83.904,119.887L83.904,133.431C83.904,136.747 84.526,140.026 85.743,143.11L86.635,145.368ZM183.048,132.558C183.048,138.977 178.264,145.368 169.365,145.368L170.257,143.111C171.474,140.027 172.096,136.748 172.096,133.432L172.096,119.888C178.292,120.77 183.048,126.111 183.048,132.558Z" style="fill:rgb(255,182,159);fill-rule:nonzero;"/>
    <path d="M115.566,134.076L98.479,131.479C95.596,131.041 93.614,128.349 94.052,125.466C94.49,122.583 97.183,120.6 100.065,121.039L117.152,123.636C120.035,124.074 122.017,126.766 121.579,129.649C121.139,132.547 118.43,134.515 115.566,134.076ZM155.934,121.039L138.847,123.636C135.964,124.074 133.982,126.766 134.42,129.649C134.858,132.532 137.551,134.515 140.433,134.076L157.52,131.479C160.403,131.041 162.385,128.349 161.947,125.466C161.507,122.568 158.798,120.6 155.934,121.039Z" style="fill:rgb(239,239,239);fill-rule:nonzero;"/>
    <path d="M94.49,196.77C94.46,196.83 94.43,196.89 94.39,196.95C92.7,200.56 88.42,202.16 84.75,200.55C81.02,198.9 79.33,194.54 80.98,190.81C81.61,189.38 82.65,188.24 83.9,187.49C85.89,186.27 88.42,186.02 90.71,187.03C94.45,188.68 96.14,193.04 94.49,196.77ZM112.44,211.62C110.74,212.44 108.82,212.29 107.36,211.37C106.54,210.87 105.84,210.13 105.38,209.19L103.51,205.37C103.14,204.64 102.97,203.84 102.97,203.08C102.96,201.13 104.05,199.24 105.93,198.31C106.28,198.14 106.63,198.01 106.99,197.93C109.37,197.34 111.89,198.47 113,200.74L114.86,204.56C115.14,205.13 115.31,205.72 115.37,206.31L115.37,206.32C115.6,208.47 114.49,210.62 112.44,211.62Z" style="fill:rgb(255,182,159);fill-rule:nonzero;"/>
    <path d="M106.99,191.51L106.99,197.93C106.63,198.01 106.28,198.14 105.93,198.31C104.05,199.24 102.96,201.13 102.97,203.08C102.94,203.06 102.9,203.06 102.87,203.05L94.39,196.95C94.43,196.89 94.46,196.83 94.49,196.77C96.14,193.04 94.45,188.68 90.71,187.03C88.42,186.02 85.89,186.27 83.9,187.49L83.9,178.586L97.46,182.9C99.89,186.49 103.16,189.46 106.99,191.51Z" style="fill:rgb(252,93,61);fill-rule:nonzero;"/>
    <path d="M149.01,173.53L149.01,199.16C149.01,203.8 145.44,206.45 142.02,206.45C137.96,206.45 135,203.07 135,199.45L135,205.61C135,206.19 134.93,206.75 134.79,207.28C134.03,210.41 131.17,212.7 127.79,212.6C123.95,212.49 121,209.15 121,205.31L121,199.45C121,204.38 116.37,206.31 115.37,206.31C115.31,205.72 115.14,205.13 114.86,204.56L113,200.74C111.89,198.47 109.37,197.34 106.99,197.93L106.99,173.53C106.99,168.4 111.15,164.24 116.28,164.24L120.81,164.24C124.68,168.37 131.36,168.33 135.19,164.24L139.72,164.24C144.85,164.24 149.01,168.4 149.01,173.53Z" style="fill:rgb(239,239,239);fill-rule:nonzero;"/>
    <path d="M172.1,177.83L172.1,215.7L155.63,211.99L134.79,207.28C134.93,206.75 135,206.19 135,205.61L135,199.45C135,203.07 137.96,206.45 142.02,206.45C145.44,206.45 149.01,203.8 149.01,199.16L149.01,191.52C152.89,189.42 156.14,186.44 158.53,182.9L172.1,177.83Z" style="fill:rgb(252,93,61);fill-rule:nonzero;"/>
    <path d="M214.5,245.19C213.119,245.19 212,244.071 212,242.69L212,239.69C212,238.309 213.119,237.19 214.5,237.19C215.881,237.19 217,238.309 217,239.69L217,242.69C217,244.071 215.881,245.19 214.5,245.19ZM214.5,232.19C213.119,232.19 212,231.071 212,229.69L212,208.53C212,200.756 206.78,193.835 199.308,191.7L180.365,186.289C179.037,185.91 178.268,184.526 178.647,183.199C179.027,181.871 180.41,181.102 181.738,181.482L200.681,186.893C210.289,189.637 217,198.535 217,208.53L217,229.69C217,231.071 215.881,232.19 214.5,232.19Z" style="fill:rgb(197,229,254);fill-rule:nonzero;"/>
    <path d="M156.71,35.04C155.35,34.94 154.14,36 154.05,37.37C153.966,38.77 155.023,39.928 156.38,40.03C157.987,40.03 158.955,38.938 159.04,37.7C159.13,36.32 158.08,35.13 156.71,35.04ZM135.808,73.172L132.764,72.73L131.402,69.971C130.011,67.152 125.988,67.153 124.598,69.971L123.238,72.729L120.194,73.171C117.083,73.624 115.84,77.449 118.09,79.643L120.292,81.79L119.772,84.823C119.243,87.92 122.495,90.284 125.277,88.822L128,87.391L130.723,88.822C133.501,90.284 136.761,87.924 136.228,84.822L135.708,81.79L137.909,79.644C140.162,77.451 138.919,73.624 135.808,73.172ZM131.763,78.654C130.868,79.527 130.461,80.782 130.673,82.011L130.887,83.26L129.767,82.671C128.66,82.09 127.34,82.09 126.235,82.671L125.114,83.26L125.328,82.013C125.54,80.78 125.132,79.524 124.237,78.654L123.331,77.77L124.586,77.587C125.821,77.406 126.889,76.631 127.441,75.512L128.001,74.377L128.562,75.512C129.115,76.631 130.181,77.407 131.418,77.588L132.672,77.77L131.763,78.654ZM163.434,70.869L160.39,70.427L159.03,67.669C157.637,64.85 153.615,64.851 152.224,67.669L150.864,70.427L147.82,70.869C144.711,71.321 143.465,75.147 145.717,77.341L147.919,79.488L147.399,82.519C146.867,85.617 150.119,87.981 152.904,86.519L155.627,85.088L158.35,86.519C161.127,87.98 164.387,85.621 163.854,82.519L163.334,79.487L165.538,77.339C167.787,75.145 166.544,71.321 163.434,70.869ZM159.389,76.351C158.494,77.224 158.087,78.479 158.299,79.708L158.513,80.957L157.393,80.368C156.287,79.788 154.968,79.787 153.862,80.368L152.741,80.957L152.955,79.71C153.167,78.48 152.76,77.224 151.864,76.351L150.957,75.467L152.211,75.285C153.447,75.105 154.515,74.329 155.067,73.21L155.628,72.074L156.188,73.21C156.741,74.33 157.808,75.105 159.045,75.286L160.298,75.468L159.389,76.351ZM108.181,70.869L105.137,70.427L103.777,67.669C102.382,64.845 98.359,64.856 96.971,67.669L95.611,70.427L92.567,70.869C89.458,71.321 88.212,75.147 90.464,77.341L92.666,79.488L92.146,82.519C91.614,85.617 94.866,87.981 97.651,86.519L100.374,85.088L103.097,86.519C105.874,87.98 109.134,85.621 108.601,82.519L108.081,79.487L110.285,77.339C112.534,75.145 111.291,71.321 108.181,70.869ZM104.136,76.351C103.244,77.221 102.836,78.475 103.046,79.708L103.26,80.957L102.14,80.368C101.035,79.788 99.716,79.787 98.609,80.368L97.488,80.957L97.702,79.71C97.914,78.48 97.507,77.224 96.611,76.351L95.704,75.467L96.958,75.285C98.194,75.105 99.262,74.329 99.814,73.21L100.375,72.074L100.935,73.21C101.488,74.33 102.555,75.105 103.792,75.286L105.045,75.468L104.136,76.351ZM110.4,149.083C111.781,149.083 112.9,147.964 112.9,146.583L112.9,143.503C112.9,142.122 111.781,141.003 110.4,141.003C109.019,141.003 107.9,142.122 107.9,143.503L107.9,146.583C107.9,147.964 109.02,149.083 110.4,149.083ZM146.04,141.003C144.659,141.003 143.54,142.122 143.54,143.503L143.54,146.583C143.54,147.964 144.659,149.083 146.04,149.083C147.421,149.083 148.54,147.964 148.54,146.583L148.54,143.503C148.54,142.123 147.421,141.003 146.04,141.003ZM182.979,238.14C181.66,237.8 180.269,238.63 179.939,239.94L176.849,252.07C176.509,253.41 177.309,254.77 178.649,255.11C180.048,255.458 181.364,254.603 181.689,253.31L184.79,241.18C185.121,239.837 184.314,238.468 182.979,238.14ZM187.26,231.49C187.596,230.128 186.778,228.777 185.45,228.45C184.13,228.11 182.75,228.94 182.41,230.25C182.061,231.664 182.937,232.974 184.22,233.29C185.625,233.64 186.922,232.77 187.26,231.49ZM31.5,228.19C30.12,228.19 29,229.31 29,230.69L29,252.69C29,254.07 30.12,255.19 31.5,255.19C32.88,255.19 34,254.07 34,252.69L34,230.69C34,229.31 32.88,228.19 31.5,228.19Z" style="fill-rule:nonzero;"/>
    <circle cx="31.5" cy="220.69" r="2.5"/>
    <path d="M224.5,255.19C225.881,255.19 227,254.071 227,252.69L227,208.53C227,194.093 217.307,181.242 203.427,177.277L182.538,171.311C186.776,167.135 189.2,160.783 187.152,153.94C192.439,151.84 196.384,147.331 197.733,141.651C199.149,135.684 197.443,129.589 193.261,125.286C195.777,119.796 195.3,113.351 191.884,108.231C194.632,107.622 197.39,106.981 200.141,106.276C204.505,105.153 207.554,101.232 207.554,96.739C207.554,90.394 201.625,85.68 195.461,87.167C188.823,88.785 181.884,90.149 174.81,91.265C176.3,59.326 176.533,41.171 181.853,11.551C182.636,7.192 179.271,3.168 174.82,3.168L81.18,3.168C76.733,3.168 73.363,7.188 74.147,11.551C79.472,41.195 79.714,59.546 81.191,91.258C74.098,90.143 67.157,88.78 60.535,87.166C54.34,85.669 48.447,90.417 48.447,96.74C48.447,101.236 51.496,105.157 55.862,106.277C58.612,106.982 61.369,107.622 64.116,108.231C60.671,113.391 60.248,119.86 62.74,125.29C53.989,134.319 57.294,149.286 68.87,153.94C67.147,159.958 68.708,166.678 73.413,171.332L52.571,177.281C38.626,181.255 29,193.982 29,208.53L29,210.69C29,212.07 30.12,213.19 31.5,213.19C32.88,213.19 34,212.07 34,210.69L34,208.53C34,196.31 42.2,185.44 53.95,182.08L78.797,174.988C80.175,175.583 81.635,175.995 83.125,176.225C82.007,176.592 81.4,177.579 81.4,178.587L81.4,186.208C80.539,186.922 79.825,187.787 79.253,188.753C61.731,194.692 49.384,210.286 47.69,228.77C47.119,234.948 47.635,229.081 45.628,252.476C45.504,253.933 46.651,255.19 48.122,255.19C49.406,255.19 50.498,254.207 50.61,252.904L51.383,243.899C56.903,249.153 65.746,249.199 70.942,243.137C73.349,240.416 75.569,240.204 79.723,240.635L78.718,252.479C78.602,253.855 79.622,255.065 80.998,255.182C81.069,255.188 81.141,255.191 81.212,255.191C82.497,255.191 83.59,254.206 83.7,252.902L84.693,241.198L87.687,241.51C91.739,242.436 96.116,240.385 97.869,236.312L97.869,252.691C97.869,254.072 98.988,255.191 100.369,255.191C101.75,255.191 102.869,254.072 102.869,252.691L102.869,226.023C104.567,223.501 104.82,220.474 103.801,217.844C105.706,217.295 107.383,216.112 108.543,214.484C112.91,215.395 117.031,212.499 117.771,208.175C118.078,208.036 118.392,207.871 118.71,207.684L118.71,252.69C118.71,254.071 119.829,255.19 121.21,255.19C122.591,255.19 123.71,254.071 123.71,252.69L123.71,214.029C126.464,215.489 129.615,215.423 132.29,214.063L132.29,252.691C132.29,254.072 133.409,255.191 134.79,255.191C136.171,255.191 137.29,254.072 137.29,252.691L137.29,210.408L153.13,213.983L153.13,252.691C153.13,254.072 154.249,255.191 155.63,255.191C157.011,255.191 158.13,254.072 158.13,252.691L158.13,215.111L171.55,218.14C173.12,218.493 174.6,217.295 174.6,215.701L174.6,207.537L187.02,212.191L184.89,220.561C184.539,221.904 185.374,223.277 186.69,223.601C188.088,223.949 189.405,223.093 189.73,221.801L192.42,211.251C192.74,210.011 192.069,208.741 190.88,208.291L174.6,202.197L174.6,177.83C174.6,177.17 174.33,176.552 173.876,176.089C175.002,175.836 176.115,175.472 177.198,174.985L202.054,182.084C213.798,185.439 222,196.314 222,208.53L222,252.69C222,254.071 223.119,255.19 224.5,255.19ZM192.867,140.496C191.724,145.311 188.158,148.827 183.328,149.9C181.773,150.245 180.927,151.946 181.604,153.398C186.571,164.038 175.747,174.741 165.516,170.57C166.235,162.728 164.173,165.335 171.101,147.786C180.495,146.967 185.547,139.559 185.547,132.558C185.547,125.736 180.968,119.788 174.599,117.897L174.599,111.475C178.485,110.881 183.203,110.04 186.452,109.392C190.277,113.499 190.976,119.658 188.015,124.519C187.366,125.585 187.602,126.967 188.569,127.756C192.353,130.845 193.999,135.727 192.867,140.496ZM139.72,161.74L139.647,161.74C140.353,159.861 140.614,157.821 140.344,155.763L137.813,136.398C138.842,136.648 139.725,136.714 140.81,136.548L157.897,133.951C162.137,133.307 165.063,129.332 164.419,125.091C163.775,120.852 159.822,117.919 155.558,118.569L138.473,121.166C134.331,121.795 131.355,125.6 131.931,129.976L135.387,156.414C135.973,160.892 132.46,164.824 127.997,164.825L127.996,164.825C123.528,164.825 120.044,160.892 120.613,156.414L124.069,129.977C124.643,125.598 121.667,121.795 117.528,121.167L100.443,118.57C96.183,117.924 92.226,120.846 91.581,125.093C90.937,129.335 93.863,133.309 98.103,133.952L115.19,136.549C116.276,136.714 117.155,136.65 118.187,136.4L115.654,155.773C115.391,157.83 115.654,159.868 116.357,161.742L116.279,161.742C109.778,161.742 104.489,167.031 104.489,173.532L104.489,186.875C98.965,182.462 95.359,175.547 95.359,167.862C95.359,159.028 92.81,154.216 88.066,142.198C86.96,139.383 86.399,136.433 86.399,133.432L86.399,112.211C113.651,115.931 142.676,115.874 169.598,112.2L169.598,133.432C169.598,136.433 169.037,139.382 167.932,142.196C163.215,154.144 160.638,159.019 160.638,167.862C160.638,175.522 157.087,182.387 151.508,186.87L151.508,173.53C151.51,167.029 146.221,161.74 139.72,161.74ZM156.313,123.511C157.807,123.279 159.243,124.307 159.476,125.841C159.706,127.357 158.661,128.778 157.145,129.008L140.057,131.606C138.528,131.836 137.122,130.785 136.893,129.274C136.663,127.755 137.702,126.339 139.224,126.108C139.359,126.087 156.313,123.511 156.313,123.511ZM115.945,131.604C115.945,131.604 98.989,129.027 98.854,129.006C97.339,128.776 96.293,127.356 96.524,125.841C96.754,124.326 98.166,123.279 99.69,123.51L116.777,126.107C118.29,126.336 119.338,127.746 119.107,129.273C118.875,130.806 117.446,131.833 115.945,131.604ZM86.4,183.998L86.4,182.006L95.896,185.027C98.264,188.309 101.28,191.02 104.49,192.963L104.49,196.245C103.36,196.874 102.254,197.954 101.592,199.053L97.369,196.016C98.94,189.327 93.257,183.047 86.4,183.998ZM83.269,191.818C84.365,189.327 87.303,188.26 89.702,189.317C92.079,190.367 93.389,193.189 92.126,195.891C91.021,198.254 88.163,199.316 85.762,198.264C83.309,197.178 82.167,194.309 83.269,191.818ZM82.815,142.334C77.968,140.886 75.452,136.703 75.452,132.558C75.452,128.479 77.87,124.868 81.4,123.217L81.4,133.43C81.4,136.461 81.879,139.446 82.815,142.334ZM174.6,133.43L174.6,123.222C178.13,124.877 180.548,128.487 180.548,132.558C180.548,136.702 178.032,140.886 173.185,142.334C174.12,139.45 174.6,136.463 174.6,133.43ZM164.613,175.568C165.951,176.027 167.319,176.313 168.693,176.434L163.714,178.294C164.055,177.4 164.36,176.491 164.613,175.568ZM86.231,92.01C84.963,64.811 84.804,61.264 84.654,58.514C113.547,62.406 143.658,62.238 171.346,58.514C171.211,61.005 171.064,64.251 169.768,92.018C142.298,95.851 113.725,95.856 86.231,92.01ZM134.705,56.296C130.243,56.385 125.755,56.385 121.296,56.296C121.091,40.149 120.693,23.991 120.11,8.167L135.891,8.167C135.307,24.001 134.909,40.159 134.705,56.296ZM116.293,56.157C111.838,55.999 107.344,55.746 102.868,55.402C102.274,39.565 101.093,23.703 99.35,8.167L115.107,8.167C115.69,23.944 116.088,40.055 116.293,56.157ZM176.932,10.667C174.397,24.785 172.627,39.155 171.666,53.416C167.111,54.044 163.213,54.505 158.15,54.97C158.245,52.533 158.348,50.083 158.47,47.64C158.531,46.284 157.494,45.083 156.09,45.02C154.71,44.95 153.54,46.02 153.47,47.39C153.345,50.001 153.23,52.688 153.127,55.396C148.689,55.743 144.198,55.998 139.708,56.157C139.913,40.065 140.311,23.953 140.894,8.167L156.648,8.167C155.94,14.478 155.312,20.918 154.781,27.36C154.671,28.73 155.701,29.94 157.07,30.05C158.212,30.217 159.642,29.274 159.77,27.76C160.3,21.237 160.958,14.66 161.692,8.167L174.821,8.167C176.131,8.167 177.169,9.345 176.932,10.667ZM79.068,10.667C78.831,9.346 79.868,8.167 81.179,8.167L94.318,8.167C96.059,23.557 97.244,39.276 97.847,54.975C93.606,54.58 89.767,54.165 84.334,53.416C83.373,39.154 81.603,24.784 79.068,10.667ZM53.446,96.739C53.446,93.628 56.325,91.293 59.355,92.024C102.112,102.446 153.525,102.53 196.638,92.026C199.636,91.301 202.553,93.619 202.553,96.739C202.553,98.949 201.048,100.879 198.896,101.432C153.688,113.023 100.859,112.655 57.103,101.432C54.95,100.88 53.446,98.95 53.446,96.739ZM72.67,149.899C62.554,147.661 59.141,134.536 67.433,127.755C68.4,126.964 68.634,125.58 67.982,124.515C65.053,119.731 65.681,113.546 69.549,109.39C73.074,110.093 77.312,110.85 81.401,111.482L81.401,117.895C75.031,119.779 70.453,125.727 70.453,132.558C70.453,139.559 75.504,146.967 84.899,147.786C91.85,165.395 89.752,162.688 90.486,170.556C79.871,174.767 69.535,163.804 74.396,153.398C75.072,151.946 74.228,150.243 72.67,149.899ZM91.384,175.545C91.671,176.605 92.021,177.65 92.427,178.675L85.356,176.425C87.495,176.484 89.482,176.175 91.384,175.545ZM97.697,212.399L81.845,208.216C80.513,207.865 79.143,208.659 78.79,209.996C78.437,211.331 79.234,212.699 80.569,213.051L96.421,217.234L96.422,217.234C98.947,217.897 100.069,220.603 99.004,222.75C98.127,224.503 96.232,225.265 94.527,224.824C90.52,223.819 94.496,224.856 77.55,220.364C76.218,220.008 74.847,220.804 74.492,222.14C74.138,223.474 74.933,224.843 76.268,225.197L90.613,229C90.621,229.002 90.629,229.001 90.636,229.003L90.637,229.003C93.015,229.604 94.262,232.213 93.25,234.424C93.228,234.463 93.207,234.502 93.187,234.541C92.359,236.216 90.515,237.067 88.719,236.615C88.571,236.577 82.356,235.903 82.172,235.882C76.836,235.237 71.795,234.628 67.17,239.853C61.931,245.969 51.587,241.75 52.289,233.319L52.667,229.228C54.083,213.787 63.818,200.598 77.877,194.616C78.613,203.288 89.248,206.699 94.999,200.47L100.6,204.498C100.699,205.031 100.941,205.834 101.263,206.469L103.133,210.288C103.428,210.892 103.853,211.511 104.203,211.923C102.367,213.918 100.258,213.077 97.697,212.399ZM111.35,209.371C109.944,210.045 108.299,209.467 107.625,208.091L105.739,204.24C105.082,202.943 105.649,201.238 107.02,200.56C108.409,199.887 110.083,200.467 110.751,201.835L112.614,205.66C113.298,207.048 112.703,208.707 111.35,209.371ZM123.5,205.31L123.5,199.45C123.5,198.069 122.381,196.95 121,196.95C119.619,196.95 118.5,198.069 118.5,199.45C118.5,201.148 117.67,202.242 116.838,202.911L115.246,199.642C114.18,197.462 112.042,195.801 109.49,195.379L109.49,173.53C109.49,169.786 112.536,166.74 116.28,166.74L119.8,166.74C122.033,168.711 124.961,169.823 127.996,169.823L127.998,169.823C131.038,169.823 133.968,168.711 136.2,166.74L139.72,166.74C143.464,166.74 146.51,169.786 146.51,173.53L146.51,199.16C146.51,202.271 144.197,203.95 142.02,203.95C139.317,203.95 137.5,201.623 137.5,199.45C137.5,198.069 136.381,196.95 135,196.95C133.619,196.95 132.5,198.069 132.5,199.45L132.5,205.61C132.5,211.573 123.5,211.619 123.5,205.31ZM147.046,207.483C149.612,205.875 151.51,203.003 151.51,199.16L151.51,192.957C154.882,190.9 157.821,188.169 160.114,184.976L169.6,181.432L169.6,212.573L147.046,207.483Z" style="fill-rule:nonzero;"/>
    <path d="M171.417,224.084L167.833,224.084C166.452,224.084 165.333,225.203 165.333,226.584C165.333,227.965 166.452,229.084 167.833,229.084L171.417,229.084C172.798,229.084 173.917,227.965 173.917,226.584C173.917,225.203 172.798,224.084 171.417,224.084ZM138.653,178.586C138.653,177.205 137.534,176.086 136.153,176.086L119.846,176.086C118.465,176.086 117.346,177.205 117.346,178.586C117.346,179.967 118.465,181.086 119.846,181.086L136.153,181.086C137.534,181.086 138.653,179.967 138.653,178.586Z" style="fill-rule:nonzero;"/>
</svg>
